<svg xmlns="http://www.w3.org/2000/svg" width="499" height="499" viewBox="0 0 499 499">
<g>
<path d="M 497.79 406.00 C497.80,406.00 497.80,406.01 497.80,406.01 C498.19,406.01 498.62,334.32 498.76,246.00 L 499.00 102.45 L 499.00 499.00 L 0.00 499.00 L 0.00 0.00 L 499.00 0.00 L 499.00 84.39 L 496.43 74.58 C489.09,46.64 473.10,25.66 447.14,9.95 C443.10,7.50 437.92,4.30 435.64,2.83 L 431.50 0.16 L 250.25 0.08 C140.46,0.03 69.00,0.36 69.00,0.92 C69.00,1.43 67.76,2.13 66.25,2.48 C55.07,5.09 28.41,27.79 18.45,43.19 C12.03,53.10 9.53,58.41 4.75,72.21 L 0.50 84.50 L 0.24 238.13 C0.09,322.63 0.32,392.69 0.74,393.84 C1.31,395.37 1.91,395.67 3.01,395.00 C4.31,394.19 4.57,382.95 5.04,308.79 C5.33,261.88 5.67,223.39 5.79,223.25 C7.24,221.56 16.78,225.93 29.00,233.88 C36.75,238.92 40.56,240.76 48.00,243.06 C53.49,244.76 55.25,245.92 59.30,250.48 C64.07,255.87 64.11,255.97 67.03,270.70 C72.05,295.94 74.07,301.14 79.10,301.83 C81.36,302.14 88.00,308.39 88.00,310.20 C88.00,313.01 81.25,324.85 75.09,332.86 C71.13,338.01 68.05,342.38 68.24,342.58 C68.44,342.77 76.67,334.82 86.55,324.91 C102.21,309.20 104.29,306.74 102.87,305.67 C101.97,305.00 97.15,302.24 92.17,299.53 C84.07,295.14 83.07,294.29 82.80,291.56 C82.63,289.88 82.72,269.63 83.00,246.57 L 83.50 204.63 L 104.50 193.20 C116.05,186.91 130.68,178.92 137.00,175.45 C143.32,171.97 152.32,167.22 157.00,164.89 C166.37,160.21 174.00,154.64 174.00,152.46 C174.00,151.69 174.90,149.46 176.00,147.50 C177.66,144.54 178.03,141.87 178.18,131.72 L 178.36 119.50 L 179.05 135.00 C179.43,143.52 179.80,158.60 179.88,168.50 L 180.03 186.50 L 189.94 191.76 L 199.86 197.02 L 208.57 187.03 L 217.28 177.04 L 225.89 184.94 C230.63,189.28 236.73,195.12 239.46,197.92 C242.19,200.71 244.99,203.00 245.68,203.00 C246.67,203.00 246.86,197.40 246.55,176.87 L 246.16 150.75 L 243.33 148.88 C241.77,147.85 240.91,147.01 241.41,147.01 C241.90,147.00 243.82,148.15 245.67,149.56 C247.52,150.97 249.93,152.19 251.02,152.28 C252.95,152.42 253.00,153.22 253.00,181.53 L 253.00 210.63 L 255.92 213.42 C257.52,214.96 259.32,215.92 259.91,215.55 C260.91,214.93 279.47,193.84 290.22,181.10 C292.82,178.02 294.96,175.00 294.97,174.39 C294.99,173.78 293.71,170.14 292.12,166.30 C289.43,159.76 289.36,159.26 291.02,158.22 C293.11,156.91 294.01,157.57 293.98,160.42 C293.97,162.13 293.80,162.23 293.00,161.00 C292.24,159.82 292.03,160.07 292.02,162.14 C292.01,163.66 292.69,165.05 293.61,165.40 C294.82,165.87 295.07,165.59 294.61,164.26 C294.19,163.05 294.63,163.25 296.02,164.89 C297.14,166.21 298.19,167.11 298.36,166.89 C298.53,166.68 299.43,163.36 300.35,159.52 C301.97,152.79 304.21,148.88 305.63,150.30 C306.01,150.67 305.32,154.41 304.10,158.60 C302.88,162.79 302.05,166.38 302.25,166.58 C302.45,166.78 306.41,162.64 311.06,157.39 C319.46,147.88 321.26,144.45 322.71,135.25 C323.11,132.72 322.86,132.00 321.61,132.00 C320.47,132.00 320.00,131.08 320.00,128.84 L 320.00 125.69 L 322.44 128.53 C323.79,130.10 324.66,131.74 324.38,132.19 C324.10,132.65 324.59,133.29 325.46,133.62 C329.38,135.13 329.35,139.80 325.38,143.76 C323.89,145.25 324.60,148.00 326.48,148.00 C327.18,148.00 328.32,147.32 329.00,146.50 C329.68,145.68 330.83,145.00 331.56,145.00 C332.97,145.00 333.67,143.10 333.86,138.69 C333.93,137.15 335.17,134.33 336.61,132.44 C338.63,129.79 339.97,129.00 342.42,129.00 C344.17,129.00 346.21,128.44 346.95,127.75 C348.04,126.73 348.15,126.78 347.51,128.00 C347.08,128.82 348.27,127.93 350.15,126.00 C352.03,124.07 353.37,122.05 353.12,121.50 C352.88,120.95 353.04,120.82 353.47,121.22 C354.74,122.36 359.91,115.15 359.47,112.85 C359.25,111.72 357.91,109.72 356.49,108.40 C354.63,106.68 354.33,106.00 355.45,106.00 C356.30,106.00 357.00,106.35 357.00,106.77 C357.00,107.20 358.58,108.39 360.50,109.43 C362.42,110.47 364.00,111.85 364.00,112.50 C364.00,113.15 362.54,115.05 360.75,116.73 C358.96,118.41 355.92,121.71 354.00,124.06 C350.50,128.34 335.64,145.70 312.12,173.00 C300.04,187.02 290.44,198.06 269.69,221.78 L 259.83 233.06 L 239.54 213.53 C228.39,202.79 218.79,194.00 218.22,194.00 C217.64,194.00 209.82,202.64 200.84,213.20 C191.85,223.76 182.48,234.70 180.00,237.51 C175.57,242.54 104.93,325.19 95.73,336.11 C88.95,344.14 89.90,344.51 97.75,336.90 C104.66,330.20 115.65,320.54 124.42,313.47 C132.76,306.74 141.06,300.00 151.83,291.23 C157.51,286.61 162.31,282.98 162.50,283.17 C162.69,283.36 158.28,289.13 152.71,296.01 C126.69,328.09 109.00,350.55 109.04,351.48 C109.06,352.04 110.52,350.86 112.29,348.86 C114.05,346.86 120.22,339.91 126.00,333.41 C131.77,326.92 137.85,319.95 139.50,317.94 C143.85,312.62 166.97,286.20 170.50,282.52 C172.15,280.79 172.71,280.34 171.74,281.52 C170.77,282.69 170.29,283.95 170.66,284.32 C171.03,284.70 170.79,285.00 170.12,285.00 C169.46,285.00 169.00,285.56 169.12,286.25 C169.23,286.94 168.80,288.77 168.16,290.32 C166.44,294.50 166.68,295.00 170.39,295.00 C175.22,295.00 175.54,297.18 171.46,302.23 C169.56,304.58 166.48,308.75 164.62,311.50 C160.98,316.88 144.78,337.37 137.78,345.44 C132.29,351.77 114.04,376.25 114.02,377.31 C113.99,378.61 127.70,363.11 155.36,330.57 C159.14,326.13 163.42,321.15 164.88,319.50 C166.34,317.85 170.87,312.45 174.95,307.50 C179.03,302.55 183.97,296.68 185.93,294.45 C190.68,289.05 192.43,287.00 206.95,269.75 C213.77,261.64 220.02,255.00 220.83,255.00 C221.63,255.00 230.57,263.21 240.68,273.25 C250.80,283.29 259.69,291.64 260.44,291.81 C261.27,291.99 262.08,290.92 262.48,289.10 C263.27,285.51 269.55,275.62 273.57,271.66 C275.15,270.11 279.44,267.08 283.09,264.95 C290.28,260.75 293.94,256.85 327.68,217.50 C384.29,151.46 392.54,142.00 393.52,142.00 C393.78,142.00 399.06,146.72 405.25,152.49 C411.44,158.26 416.78,162.98 417.12,162.99 C417.46,163.00 418.05,160.64 418.42,157.75 C418.79,154.86 422.18,133.60 425.97,110.50 C429.75,87.40 433.10,66.63 433.42,64.35 L 433.99 60.21 L 422.75 63.95 C416.56,66.02 410.38,68.16 409.00,68.71 C404.12,70.68 385.45,76.84 382.50,77.45 C379.78,78.01 379.90,77.83 383.82,75.44 C386.19,73.99 388.39,73.05 388.69,73.36 C389.00,73.66 391.03,73.01 393.20,71.90 C395.38,70.79 400.49,69.03 404.56,67.98 C414.03,65.56 414.95,65.04 419.86,59.17 C423.22,55.15 425.23,53.82 431.22,51.64 C440.34,48.32 443.77,48.22 444.92,51.25 C446.39,55.16 445.28,68.03 443.28,70.25 C441.88,71.80 441.49,74.04 441.44,80.86 C441.40,85.61 440.62,93.55 439.70,98.50 C438.78,103.45 436.00,120.32 433.51,136.00 C431.03,151.68 428.55,166.52 428.01,169.00 C427.47,171.48 426.74,175.40 426.39,177.73 C426.04,180.06 425.12,182.49 424.34,183.13 C422.75,184.45 422.63,184.36 407.15,169.50 C401.99,164.55 397.13,159.89 396.34,159.13 C395.13,157.98 394.59,158.05 392.80,159.63 C388.88,163.11 375.00,179.42 375.00,180.55 C375.00,181.18 376.67,182.54 378.71,183.59 C380.74,184.64 386.18,187.64 390.79,190.25 C395.39,192.86 399.29,195.00 399.46,195.00 C399.78,195.00 416.30,204.04 416.79,204.48 C417.31,204.95 416.98,292.90 416.45,294.27 C416.17,295.01 413.59,296.81 410.72,298.27 C395.57,305.97 356.00,328.19 356.00,328.99 C356.00,329.41 362.30,335.78 370.00,343.15 C383.90,356.45 384.00,356.57 384.02,361.02 C384.03,366.70 385.23,368.88 387.36,367.12 C390.45,364.55 390.25,360.54 386.45,349.43 C381.17,333.95 382.09,330.51 393.06,324.97 C396.12,323.43 399.23,321.42 399.99,320.52 C400.74,319.61 402.63,318.21 404.19,317.40 C405.75,316.60 410.05,313.35 413.76,310.18 C417.47,307.01 421.95,303.40 423.73,302.16 C427.55,299.48 431.05,292.28 431.59,286.00 C431.80,283.52 432.89,278.58 434.01,275.00 C435.14,271.42 436.74,261.75 437.56,253.50 C439.87,230.49 440.64,227.04 444.33,223.16 C446.07,221.33 449.52,218.66 452.00,217.22 C460.33,212.40 472.78,203.59 482.00,196.01 C490.40,189.10 491.01,188.67 491.61,189.28 C493.73,191.40 494.23,206.03 495.07,290.50 C495.98,383.16 496.46,403.15 497.79,406.00 ZM 364.00 370.82 C368.93,372.61 374.96,366.79 373.45,361.70 C373.09,360.49 367.34,353.99 360.67,347.25 C350.19,336.68 348.09,335.00 345.34,335.00 C343.12,335.00 341.54,334.23 340.17,332.49 L 338.20 329.99 L 341.05 324.72 C346.85,314.02 347.15,300.74 341.85,289.36 C338.97,283.16 329.95,274.12 323.50,270.96 C319.11,268.80 317.16,268.50 307.50,268.50 C297.52,268.50 295.98,268.76 290.89,271.25 C283.86,274.71 275.71,283.22 272.30,290.65 C268.91,298.06 268.22,307.36 270.40,316.02 C274.78,333.37 292.24,346.04 310.02,344.77 C316.72,344.29 326.50,340.67 330.23,337.29 C331.89,335.79 332.20,335.84 334.51,338.01 C335.92,339.33 337.00,341.47 337.00,342.94 C337.00,344.92 339.87,348.39 349.25,357.72 C355.99,364.43 362.62,370.32 364.00,370.82 ZM 354.50 306.21 L 354.50 316.91 L 364.50 311.55 C370.00,308.60 381.70,302.16 390.50,297.24 L 406.50 288.30 L 406.76 252.65 C406.98,223.64 406.78,217.00 405.70,217.00 C404.98,217.00 401.71,218.62 398.44,220.60 C395.17,222.57 389.91,225.50 386.75,227.11 L 381.00 230.03 L 381.00 248.93 L 366.50 256.94 L 366.21 247.97 C366.05,243.04 365.79,239.00 365.62,239.00 C365.45,239.00 359.73,242.08 352.90,245.85 L 340.50 252.70 L 340.21 261.50 C339.94,269.58 340.11,270.52 342.29,272.90 C346.21,277.20 350.80,284.88 352.70,290.35 C354.00,294.07 354.50,298.48 354.50,306.21 ZM 239.47 365.61 C242.75,367.42 245.62,368.71 245.84,368.49 C246.26,368.07 246.16,300.76 245.74,300.50 C245.61,300.42 242.80,298.85 239.50,297.02 C220.43,286.41 211.60,282.00 210.90,282.70 C210.47,283.14 203.35,291.38 195.09,301.00 L 180.06 318.50 L 180.03 326.01 L 180.00 333.53 L 189.25 338.40 C197.55,342.77 223.65,356.92 239.47,365.61 ZM 318.84 334.42 C307.46,339.18 293.27,335.76 284.93,326.26 C279.72,320.33 277.62,314.54 277.57,306.00 C277.52,296.82 279.86,291.09 286.26,284.68 C292.46,278.49 300.24,275.66 309.50,276.24 C323.63,277.12 334.31,286.63 336.93,300.66 C339.42,313.96 331.23,329.24 318.84,334.42 ZM 103.00 292.96 C112.27,298.33 113.02,298.58 114.80,296.80 C117.05,294.55 116.01,293.39 107.93,289.08 C100.57,285.16 97.89,282.78 99.27,281.40 C100.18,280.49 116.86,290.05 117.19,291.66 C117.38,292.58 125.01,284.51 136.30,271.43 L 155.11 249.65 L 145.30 244.35 C139.91,241.43 135.16,239.03 134.75,239.02 C134.34,239.01 134.00,243.03 134.00,247.97 L 134.00 256.93 L 126.75 253.00 L 119.50 249.07 L 119.00 239.29 L 118.50 229.50 L 107.00 223.27 C100.68,219.84 95.05,217.02 94.50,217.02 C93.84,217.00 93.67,229.16 94.00,252.51 L 94.50 288.03 ZM 138.50 497.09 C143.98,498.32 373.81,498.12 374.57,496.89 C375.89,494.75 372.58,494.20 355.11,493.63 C316.63,492.37 297.02,490.39 298.55,487.92 C299.14,486.97 293.70,483.00 291.81,483.00 C291.04,483.00 287.74,482.30 284.46,481.44 C277.63,479.66 236.15,477.70 234.43,479.08 C233.85,479.55 230.70,480.21 227.43,480.54 C218.31,481.47 207.77,483.94 205.00,485.79 C197.71,490.67 192.08,491.61 161.09,493.08 C139.90,494.09 131.66,495.55 138.50,497.09 ZM 110.21 216.21 C116.88,219.89 122.60,222.76 122.92,222.58 C123.24,222.39 134.75,216.06 148.50,208.51 C162.25,200.95 173.73,194.53 174.00,194.25 C174.27,193.96 174.05,193.56 173.50,193.35 C169.99,192.02 169.75,191.19 169.92,181.11 C170.12,169.55 169.78,169.19 162.59,173.39 C160.34,174.70 145.23,183.07 129.00,191.97 C112.78,200.87 99.18,208.46 98.79,208.84 C98.41,209.21 103.54,212.53 110.21,216.21 ZM 287.88 308.25 L 288.00 321.00 L 293.00 321.00 L 293.00 308.56 C293.00,301.72 293.40,295.87 293.90,295.56 C295.49,294.58 296.00,297.95 296.00,309.58 C296.00,316.53 296.39,321.00 297.00,321.00 C297.58,321.00 298.00,317.88 298.00,313.65 C298.00,303.66 299.09,293.94 300.14,294.59 C300.61,294.88 301.00,300.94 301.00,308.06 L 301.00 321.00 L 306.00 321.00 L 306.00 308.50 C306.00,297.09 306.80,293.43 308.39,297.58 C308.73,298.45 309.00,304.08 309.00,310.08 C309.00,320.33 309.12,321.00 311.00,321.00 C312.90,321.00 313.00,320.33 313.00,308.00 C313.00,297.72 313.28,295.00 314.36,295.00 C315.90,295.00 317.00,302.99 317.00,314.15 C317.00,318.05 317.43,321.00 318.00,321.00 C318.62,321.00 319.00,316.00 319.00,308.00 C319.00,290.90 320.85,290.69 321.22,307.75 L 321.50 320.50 L 324.25 320.82 L 327.00 321.13 L 327.00 292.17 L 322.50 288.21 C317.70,283.98 314.72,283.00 306.69,283.00 C300.89,283.00 294.66,285.64 290.77,289.75 C289.94,290.63 289.33,291.23 288.90,291.94 C287.74,293.80 287.77,296.39 287.87,306.77 C287.87,307.25 287.88,307.74 287.88,308.25 ZM 256.00 384.11 C256.00,384.77 256.71,384.93 257.75,384.50 C258.71,384.11 261.98,383.18 265.00,382.43 C271.21,380.91 285.47,375.54 288.50,373.59 C289.60,372.88 292.30,371.73 294.50,371.03 C296.70,370.33 299.90,368.91 301.62,367.88 C306.27,365.07 325.42,365.15 331.00,368.00 C333.16,369.10 335.47,370.00 336.15,370.00 C336.83,370.00 339.69,372.42 342.51,375.38 C347.15,380.24 353.03,383.30 354.65,381.69 C356.33,380.00 347.51,369.83 343.25,368.54 C342.01,368.17 341.00,367.26 341.00,366.52 C341.00,364.85 331.45,353.31 328.97,351.98 C327.72,351.32 325.29,351.46 321.32,352.43 C318.12,353.22 312.61,354.17 309.08,354.55 C305.55,354.93 300.83,356.23 298.58,357.45 C279.44,367.83 265.82,375.99 262.27,379.19 C259.95,381.28 257.58,383.00 257.02,383.00 C256.46,383.00 256.00,383.50 256.00,384.11 ZM 238.00 385.23 C240.62,386.06 245.00,385.56 245.00,384.43 C245.00,383.83 243.31,381.98 241.25,380.33 C236.72,376.69 229.01,372.25 199.00,356.00 C191.57,351.97 181.47,346.45 176.55,343.72 L 167.60 338.76 L 162.80 344.13 C160.15,347.08 155.43,352.65 152.31,356.50 C149.18,360.35 144.91,365.61 142.81,368.18 C140.72,370.75 139.00,373.11 139.00,373.42 C139.00,373.72 143.61,370.10 149.25,365.36 C154.89,360.63 160.96,355.86 162.75,354.78 C164.54,353.69 166.00,352.41 166.00,351.94 C166.00,351.46 166.93,350.57 168.06,349.97 C169.62,349.13 170.51,349.18 171.66,350.13 C174.16,352.21 189.41,361.00 190.51,361.00 C191.99,361.00 201.18,365.95 203.50,368.01 C204.60,368.98 207.30,370.66 209.50,371.73 C211.70,372.81 214.85,374.39 216.50,375.26 C220.85,377.53 236.24,384.67 238.00,385.23 ZM 365.48 215.89 L 378.45 222.94 L 383.98 219.83 C397.36,212.32 402.00,209.54 402.00,209.04 C402.00,208.37 374.05,193.24 372.02,192.81 C371.21,192.64 369.92,191.92 369.16,191.21 C368.39,190.49 367.26,190.08 366.63,190.28 C364.70,190.91 350.97,207.38 351.76,208.13 C352.17,208.52 358.34,212.01 365.48,215.89 ZM 254.00 336.00 C254.00,354.15 254.21,369.00 254.47,369.00 C254.72,369.00 262.38,364.88 271.49,359.85 L 288.05 350.71 L 285.00 348.85 C283.32,347.83 281.66,347.00 281.30,347.00 C280.95,347.00 279.83,346.26 278.83,345.35 C277.13,343.81 277.00,343.81 277.00,345.35 C277.00,348.01 276.88,348.43 275.79,349.75 C273.80,352.15 273.00,350.96 273.00,345.56 C273.00,337.58 271.15,337.65 270.80,345.64 C270.61,349.89 270.04,352.49 269.25,352.75 C268.31,353.07 268.00,350.77 268.00,343.41 C268.00,336.24 267.61,333.23 266.53,332.04 C264.32,329.59 260.32,318.20 259.51,312.00 C258.83,306.88 256.82,303.00 254.85,303.00 C254.38,303.00 254.00,317.85 254.00,336.00 ZM 148.28 237.67 C154.45,241.06 159.58,243.87 159.68,243.92 C159.77,243.96 164.74,238.26 170.72,231.25 C171.33,230.54 171.92,229.84 172.50,229.16 C190.83,207.65 192.92,205.20 192.35,203.98 C192.26,203.79 192.10,203.63 191.93,203.42 C191.29,202.64 190.25,202.01 189.63,202.02 C187.97,202.06 136.98,230.13 137.03,230.98 C137.05,231.27 142.11,234.28 148.28,237.67 ZM 330.50 242.83 C333.80,244.52 336.81,245.81 337.18,245.70 C339.21,245.10 362.97,231.39 362.98,230.80 C363.00,230.15 342.93,219.00 341.75,219.00 C340.95,219.00 323.67,239.01 324.12,239.41 C324.33,239.60 327.20,241.14 330.50,242.83 ZM 240.00 348.08 C240.00,354.08 239.66,358.98 239.25,358.95 C238.84,358.93 233.77,356.30 228.00,353.11 L 217.50 347.32 L 217.22 336.66 C217.02,329.21 217.27,326.00 218.07,326.00 C218.69,326.00 223.88,328.51 229.60,331.58 L 240.00 337.16 ZM 228.25 350.19 C232.79,352.77 236.61,354.91 236.75,354.94 C236.89,354.97 237.00,351.17 237.00,346.50 C237.00,341.83 236.61,338.00 236.14,338.00 C235.66,338.00 232.00,336.20 228.00,334.00 C224.00,331.80 220.56,330.00 220.36,330.00 C220.16,330.00 220.00,333.49 220.00,337.75 L 220.01 345.50 ZM 327.68 262.39 C332.39,264.95 333.00,264.51 333.00,258.59 L 333.00 253.17 L 325.80 249.02 C318.77,244.97 318.57,244.92 317.05,246.83 C316.20,247.90 314.05,250.57 312.28,252.75 C308.80,257.04 308.91,257.99 312.92,258.01 C316.10,258.02 323.89,260.33 327.68,262.39 ZM 276.00 180.26 C276.00,184.91 275.64,186.12 274.00,187.00 C272.06,188.04 272.00,187.76 272.00,178.14 C272.00,166.04 273.17,164.81 279.17,170.67 L 283.00 174.41 L 283.00 168.31 C283.00,162.61 283.79,161.00 286.58,161.00 C286.81,161.00 287.00,165.22 287.00,170.38 C287.00,182.61 285.72,184.08 279.96,178.46 L 276.00 174.59 ZM 370.80 294.60 C370.56,299.26 370.14,300.55 368.75,300.81 C367.18,301.11 367.00,300.16 367.00,291.68 C367.00,280.07 368.23,278.87 374.17,284.67 L 378.00 288.41 L 378.00 282.31 C378.00,276.59 378.79,275.00 381.62,275.00 C381.87,275.00 381.94,279.38 381.79,284.74 C381.53,293.30 381.28,294.52 379.64,294.83 C378.56,295.04 376.40,293.84 374.45,291.95 L 371.11 288.71 ZM 393.19 287.67 C390.85,290.00 389.95,289.17 386.34,281.37 C383.53,275.29 383.09,273.56 384.16,272.88 C386.68,271.28 387.73,272.00 389.45,276.50 C390.39,278.98 391.49,281.00 391.89,281.00 C392.29,281.00 393.43,277.86 394.42,274.03 C396.11,267.53 398.26,263.93 399.63,265.30 C400.50,266.16 394.75,286.11 393.19,287.67 ZM 220.00 146.00 C220.00,150.95 219.66,154.98 219.25,154.95 C218.84,154.92 215.46,153.04 211.75,150.79 L 205.00 146.68 L 205.00 137.64 C205.00,130.41 205.25,128.85 206.25,129.85 C207.02,130.62 207.50,133.87 207.50,138.28 C207.50,146.26 208.66,148.36 213.25,148.71 C215.70,148.90 216.01,148.57 216.12,145.71 C216.18,143.94 216.16,141.90 216.06,141.18 C215.85,139.67 217.81,137.00 219.12,137.00 C219.61,137.00 220.00,141.05 220.00,146.00 ZM 229.09 282.96 C234.81,286.20 239.70,288.88 239.95,288.92 C240.81,289.07 232.49,280.82 226.63,275.71 L 220.75 270.59 L 218.84 272.95 C217.74,274.31 217.29,275.69 217.80,276.20 C218.28,276.68 223.36,279.73 229.09,282.96 ZM 264.00 356.02 C263.17,356.54 262.16,356.98 261.75,356.98 C261.34,356.99 261.00,352.29 261.00,346.54 C261.00,337.21 261.21,335.96 262.93,335.04 C264.00,334.47 265.04,334.00 265.24,334.00 C265.45,334.00 265.59,338.74 265.56,344.54 C265.51,352.77 265.17,355.28 264.00,356.02 ZM 234.36 142.51 C234.68,143.33 234.84,143.98 234.72,143.95 C232.92,143.55 221.00,136.74 221.00,136.12 C221.00,135.65 222.40,135.42 224.10,135.62 C226.60,135.91 227.09,135.68 226.60,134.41 C226.27,133.54 226.00,132.65 226.00,132.42 C226.00,132.19 225.44,131.99 224.75,131.98 C224.06,131.97 221.52,130.62 219.10,128.98 C213.53,125.21 216.09,125.05 222.05,128.80 C224.50,130.33 227.96,132.19 229.75,132.92 C231.54,133.65 233.00,134.53 233.00,134.87 C233.00,135.22 235.03,136.58 237.52,137.90 C240.00,139.22 241.87,140.46 241.67,140.66 C241.47,140.86 239.32,139.97 236.90,138.68 C231.92,136.02 229.51,135.80 229.47,138.00 C229.45,139.63 232.07,142.08 233.13,141.42 C233.50,141.19 234.05,141.68 234.36,142.51 ZM 362.80 304.80 C361.74,305.86 360.01,306.44 359.99,305.75 C359.99,305.61 359.82,301.32 359.63,296.21 C359.33,288.20 359.52,286.79 361.01,286.00 C362.50,285.20 362.82,285.70 363.37,289.67 C364.36,296.90 364.11,303.49 362.80,304.80 ZM 494.59 22.86 C494.31,23.30 494.72,23.67 495.49,23.67 C497.82,23.67 495.63,20.70 485.35,9.99 C477.82,2.15 475.27,0.08 473.31,0.24 C470.95,0.44 471.04,0.65 475.42,4.78 C478.21,7.42 480.49,8.83 481.25,8.40 C481.94,8.00 482.15,8.06 481.73,8.52 C480.87,9.47 486.92,16.17 488.02,15.49 C489.00,14.88 495.21,21.85 494.59,22.86 ZM 266.42 191.39 C265.55,191.73 264.63,192.00 264.38,192.00 C264.13,192.00 264.06,187.62 264.21,182.26 C264.46,173.92 264.75,172.48 266.25,172.19 C267.82,171.89 268.00,172.84 268.00,181.32 C268.00,189.03 267.71,190.90 266.42,191.39 ZM 4.00 23.55 C4.00,23.80 5.57,22.33 7.50,20.29 C9.43,18.25 11.00,16.20 11.00,15.73 C11.00,15.26 11.52,15.20 12.15,15.60 C12.87,16.04 13.04,15.87 12.60,15.15 C12.17,14.46 12.53,14.00 13.50,14.00 C14.39,14.00 14.88,13.62 14.60,13.16 C14.31,12.70 15.89,11.01 18.11,9.41 C20.32,7.81 23.95,5.04 26.16,3.25 C29.95,0.20 30.04,0.00 27.70,0.00 C25.99,0.00 22.82,2.23 17.61,7.09 C11.27,13.01 4.00,21.81 4.00,23.55 ZM 107.16 272.90 C106.60,273.25 105.99,275.42 105.82,277.74 C105.39,283.39 103.42,282.07 102.47,275.50 C102.07,272.75 101.36,270.01 100.88,269.40 C100.06,268.37 103.51,264.12 104.38,265.09 C106.12,267.03 108.02,272.37 107.16,272.90 ZM 201.75 180.50 C202.08,183.40 201.87,185.00 201.17,185.00 C199.49,185.00 198.00,181.53 198.00,177.62 C198.00,175.70 197.52,173.82 196.93,173.46 C196.24,173.03 196.46,172.14 197.59,170.90 C199.93,168.31 200.37,168.46 202.30,172.50 C203.63,175.30 203.70,176.00 202.61,176.00 C201.59,176.00 201.37,177.12 201.75,180.50 ZM 116.28 277.83 C115.65,278.21 114.99,280.47 114.82,282.83 C114.56,286.27 114.25,286.87 113.25,285.86 C112.56,285.17 112.00,282.88 112.00,280.79 C112.00,278.69 111.46,276.12 110.81,275.07 C109.88,273.57 109.90,272.82 110.93,271.58 C112.89,269.23 113.85,269.62 115.73,273.56 C116.96,276.14 117.11,277.31 116.28,277.83 ZM 153.00 309.19 C153.00,310.19 153.25,311.00 153.56,311.00 C154.28,311.00 162.28,304.80 163.23,303.50 C164.95,301.17 162.97,298.70 160.21,299.73 C157.59,300.70 153.00,306.72 153.00,309.19 ZM 203.00 190.53 C203.00,192.74 201.21,192.21 193.27,187.65 C186.68,183.87 184.06,180.98 187.25,181.01 C189.68,181.04 203.00,189.09 203.00,190.53 ZM 192.00 175.50 C192.00,179.70 191.26,180.92 189.67,179.33 C189.30,178.97 189.00,176.51 189.00,173.88 C189.00,170.62 188.51,168.83 187.46,168.24 C186.13,167.49 186.20,167.13 187.99,165.51 C190.22,163.49 190.94,163.91 192.79,168.25 C193.50,169.91 193.57,171.00 192.98,171.00 C192.44,171.00 192.00,173.02 192.00,175.50 ZM 235.00 345.50 C235.00,348.52 234.64,351.00 234.20,351.00 C232.22,351.00 231.00,348.21 231.00,343.69 C231.00,339.63 231.27,338.89 232.58,339.39 C233.45,339.73 234.35,340.00 234.58,340.00 C234.81,340.00 235.00,342.48 235.00,345.50 ZM 285.08 151.36 C284.30,152.32 282.84,153.55 281.83,154.09 C280.12,155.01 280.01,154.53 280.15,146.79 C280.23,142.23 280.48,139.70 280.71,141.18 C280.93,142.65 281.77,144.39 282.56,145.05 C283.35,145.71 284.00,147.34 284.00,148.68 C284.00,150.36 284.39,150.89 285.25,150.37 C286.05,149.89 285.99,150.24 285.08,151.36 ZM 224.59 335.38 C224.88,336.13 224.98,338.86 224.81,341.44 C224.56,345.19 224.25,345.87 223.25,344.86 C221.75,343.35 221.56,334.00 223.03,334.00 C223.60,334.00 224.30,334.62 224.59,335.38 ZM 229.22 341.25 C228.73,347.57 228.57,348.25 227.75,347.42 C226.42,346.08 226.87,337.00 228.28,337.00 C229.16,337.00 229.45,338.30 229.22,341.25 Z" fill="rgb(74,5,21)"/>
<path d="M 78.15 283.26 C78.95,286.28 79.80,287.63 80.67,287.30 C81.71,286.90 82.03,278.44 82.24,245.69 L 82.50 204.58 L 85.00 203.33 C87.28,202.19 107.41,191.46 125.17,181.92 C118.69,185.47 111.09,189.61 104.50,193.20 L 83.50 204.63 L 83.00 246.57 C82.72,269.63 82.63,289.88 82.80,291.56 C83.07,294.29 84.07,295.14 92.17,299.53 C97.15,302.24 101.97,305.00 102.87,305.67 C104.29,306.74 102.21,309.20 86.55,324.91 C76.67,334.82 68.44,342.77 68.24,342.58 C68.05,342.38 71.13,338.01 75.09,332.86 C81.25,324.85 88.00,313.01 88.00,310.20 C88.00,308.39 81.36,302.14 79.10,301.83 C74.07,301.14 72.05,295.94 67.03,270.70 C64.11,255.97 64.07,255.87 59.30,250.48 C55.25,245.92 53.49,244.76 48.00,243.06 C40.56,240.76 36.75,238.92 29.00,233.88 C16.78,225.93 7.24,221.56 5.79,223.25 C5.67,223.39 5.33,261.88 5.04,308.79 C4.57,382.95 4.31,394.19 3.01,395.00 C1.91,395.67 1.31,395.37 0.74,393.84 C0.32,392.69 0.09,322.63 0.24,238.13 L 0.36 166.08 C0.51,193.66 1.43,204.67 3.54,208.73 C4.82,211.18 4.99,204.79 4.99,154.13 C5.00,90.68 5.53,83.15 11.03,67.91 C24.37,30.96 57.81,5.58 95.90,3.49 C102.31,3.14 104.84,3.28 103.50,3.91 C102.10,4.57 101.95,4.89 103.00,4.96 C104.27,5.05 104.25,5.26 102.86,6.31 C101.63,7.25 101.33,8.67 101.68,12.03 C102.38,18.97 102.11,24.29 101.01,25.39 C99.44,26.96 99.81,29.49 102.00,32.27 C103.44,34.10 104.00,36.33 104.00,40.21 C104.00,43.17 104.50,46.10 105.11,46.71 C105.72,47.32 106.62,49.91 107.09,52.46 C107.57,55.01 108.70,57.84 109.60,58.74 C110.50,59.64 111.68,61.53 112.21,62.94 C112.75,64.35 116.28,68.20 120.05,71.50 C125.93,76.63 126.84,77.88 126.41,80.10 C125.68,83.89 131.02,89.66 136.06,90.51 C140.62,91.28 144.00,93.96 144.00,96.81 C144.00,97.95 144.45,99.16 145.00,99.50 C145.55,99.84 146.01,101.78 146.02,103.81 C146.03,105.84 147.37,112.45 149.00,118.50 C152.28,130.68 152.88,141.80 150.59,148.21 C149.01,152.64 144.48,158.26 141.00,160.12 C139.62,160.85 135.95,163.38 132.83,165.73 C129.71,168.08 125.37,171.01 123.20,172.25 C121.02,173.49 115.93,176.66 111.87,179.30 C107.82,181.95 98.33,187.72 90.78,192.14 C77.83,199.72 77.02,200.37 76.37,203.83 C75.25,209.84 76.77,278.11 78.15,283.26 ZM 497.79 406.00 C496.46,403.15 495.98,383.16 495.07,290.50 C494.23,206.03 493.73,191.40 491.61,189.28 C491.01,188.67 490.40,189.10 482.00,196.01 C472.78,203.59 460.33,212.40 452.00,217.22 C449.52,218.66 446.07,221.33 444.33,223.16 C440.64,227.04 439.87,230.49 437.56,253.50 C436.74,261.75 435.14,271.42 434.01,275.00 C432.89,278.58 431.80,283.52 431.59,286.00 C431.05,292.28 427.55,299.48 423.73,302.16 C421.95,303.40 417.47,307.01 413.76,310.18 C410.05,313.35 405.75,316.60 404.19,317.40 C402.63,318.21 400.74,319.61 399.99,320.52 C399.23,321.42 396.12,323.43 393.06,324.97 C382.09,330.51 381.17,333.95 386.45,349.43 C390.25,360.54 390.45,364.55 387.36,367.12 C385.23,368.88 384.03,366.70 384.02,361.02 C384.00,356.57 383.90,356.45 370.00,343.15 C362.30,335.78 356.00,329.41 356.00,328.99 C356.00,328.19 395.57,305.97 410.72,298.27 C413.59,296.81 416.17,295.01 416.45,294.27 C416.84,293.25 417.13,244.39 417.03,219.18 C417.38,238.69 418.55,268.65 419.25,271.73 C422.18,284.59 423.85,269.74 423.94,229.94 L 424.00 201.38 L 420.94 199.11 C415.83,195.34 412.17,188.00 415.39,188.00 C418.03,188.00 417.96,184.92 415.22,180.52 C413.71,178.10 408.47,172.03 403.59,167.03 C394.92,158.18 394.66,158.00 392.70,159.73 C392.68,159.75 392.65,159.77 392.63,159.79 C392.69,159.74 392.75,159.68 392.80,159.63 C394.59,158.05 395.13,157.98 396.34,159.13 C397.13,159.89 401.99,164.55 407.15,169.50 C422.63,184.36 422.75,184.45 424.34,183.13 C425.12,182.49 426.04,180.06 426.39,177.73 C426.74,175.40 427.47,171.48 428.01,169.00 C428.30,167.70 429.12,162.97 430.19,156.50 C429.29,162.34 428.65,166.62 428.47,168.14 C428.10,171.24 428.11,174.76 428.48,175.94 C429.07,177.78 429.41,177.91 430.75,176.80 C434.11,174.02 442.00,151.12 442.00,144.12 C442.00,142.48 442.48,139.86 443.07,138.32 C443.67,136.77 445.28,130.32 446.67,124.00 C449.89,109.27 451.57,102.37 452.98,98.00 C453.61,96.07 455.59,85.72 457.39,75.00 C460.44,56.87 460.58,55.03 459.40,48.84 C457.40,38.34 452.02,30.00 447.23,30.00 C446.41,30.00 444.19,29.05 442.31,27.88 C440.40,26.70 436.57,25.58 433.69,25.34 C424.79,24.63 419.97,22.82 417.15,19.13 L 414.58 15.76 L 417.11 13.58 C419.68,11.37 419.90,9.00 417.53,9.00 C416.82,9.00 415.99,8.07 415.69,6.92 C415.19,5.00 415.44,4.90 419.27,5.55 C429.08,7.20 442.79,13.29 452.50,20.29 C472.97,35.06 485.55,53.35 492.21,78.00 C494.10,84.98 494.29,89.65 494.94,145.00 C495.55,197.42 495.83,204.86 497.28,207.50 C498.33,209.41 498.71,208.24 498.86,188.60 L 498.76 246.00 C498.62,334.32 498.19,406.01 497.80,406.01 C497.80,406.01 497.80,406.00 497.79,406.00 ZM 220.00 146.00 C220.00,141.05 219.61,137.00 219.12,137.00 C217.81,137.00 215.85,139.67 216.06,141.18 C216.16,141.90 216.18,143.94 216.12,145.71 C216.01,148.57 215.70,148.90 213.25,148.71 C208.66,148.36 207.50,146.26 207.50,138.28 C207.50,133.87 207.02,130.62 206.25,129.85 C205.26,128.86 205.00,130.39 205.00,137.48 L 205.00 128.04 L 201.25 126.01 C199.19,124.89 193.90,121.98 189.50,119.53 C185.10,117.09 181.16,115.07 180.75,115.05 C180.34,115.02 180.01,131.09 180.02,150.75 L 180.03 186.50 L 179.88 168.50 C179.80,158.60 179.43,143.52 179.05,135.00 L 178.36 119.50 L 178.18 131.72 C178.03,141.87 177.66,144.54 176.00,147.50 C174.90,149.46 174.00,151.69 174.00,152.46 C174.00,154.64 166.37,160.21 157.00,164.89 C154.54,166.12 150.89,168.01 147.05,170.04 C151.23,167.69 154.84,165.59 156.50,164.52 C159.25,162.75 163.07,160.42 165.00,159.34 L 168.50 157.39 L 169.00 130.45 L 169.50 103.50 L 180.00 97.67 C185.77,94.46 197.02,88.33 205.00,84.05 C212.98,79.77 226.37,72.57 234.77,68.05 L 250.03 59.83 L 265.27 68.06 C273.64,72.59 285.45,79.00 291.50,82.29 C297.55,85.59 307.69,91.07 314.04,94.48 C324.20,99.94 328.31,101.65 329.98,104.69 C331.12,106.76 331.14,109.44 331.17,114.33 C331.18,115.59 331.19,116.99 331.22,118.57 L 331.50 132.94 L 339.46 123.80 L 347.42 114.65 L 344.55 112.58 C336.08,106.45 314.94,89.73 315.26,89.41 C315.62,89.05 347.85,77.64 387.00,64.01 C397.73,60.28 415.48,54.03 426.45,50.11 C437.42,46.20 447.02,43.00 447.77,43.00 C448.61,43.00 448.93,43.68 448.60,44.75 C448.31,45.71 446.70,55.05 445.02,65.50 C443.60,74.40 441.75,85.67 440.56,92.73 C441.06,88.57 441.41,84.01 441.44,80.86 C441.49,74.04 441.88,71.80 443.28,70.25 C445.28,68.03 446.39,55.16 444.92,51.25 C443.77,48.22 440.34,48.32 431.22,51.64 C425.23,53.82 423.22,55.15 419.86,59.17 C414.95,65.04 414.03,65.56 404.56,67.98 C400.49,69.03 395.38,70.79 393.20,71.90 C391.03,73.01 389.00,73.66 388.69,73.36 C388.39,73.05 386.19,73.99 383.82,75.44 C379.90,77.83 379.78,78.01 382.50,77.45 C384.12,77.12 390.46,75.11 396.67,73.05 C395.24,73.55 393.84,74.04 392.50,74.51 C382.05,78.18 366.30,83.62 357.50,86.59 C348.70,89.56 340.94,92.20 340.26,92.46 C338.91,92.97 343.29,98.00 345.08,98.00 C345.62,98.00 346.32,98.68 346.64,99.50 C346.95,100.32 347.60,101.00 348.08,101.00 C348.70,101.00 352.48,103.46 356.19,106.09 C355.97,106.03 355.72,106.00 355.45,106.00 C354.33,106.00 354.63,106.68 356.49,108.40 C357.91,109.72 359.25,111.72 359.47,112.85 C359.91,115.15 354.74,122.36 353.47,121.22 C353.04,120.82 352.88,120.95 353.12,121.50 C353.37,122.05 352.03,124.07 350.15,126.00 C348.27,127.93 347.08,128.82 347.51,128.00 C348.15,126.78 348.04,126.73 346.95,127.75 C346.21,128.44 344.17,129.00 342.42,129.00 C339.97,129.00 338.63,129.79 336.61,132.44 C335.17,134.33 333.93,137.15 333.86,138.69 C333.67,143.10 332.97,145.00 331.56,145.00 C330.83,145.00 329.68,145.68 329.00,146.50 C328.32,147.32 327.18,148.00 326.48,148.00 C324.60,148.00 323.89,145.25 325.38,143.76 C329.35,139.80 329.38,135.13 325.46,133.62 C324.59,133.29 324.10,132.65 324.38,132.19 C324.66,131.74 323.79,130.10 322.44,128.53 L 320.00 125.69 L 320.00 128.84 C320.00,131.08 320.47,132.00 321.61,132.00 C322.86,132.00 323.11,132.72 322.71,135.25 C322.05,139.41 321.33,142.39 319.95,145.29 L 319.97 131.17 C319.99,121.86 319.61,114.98 319.10,115.17 C318.60,115.35 312.99,118.42 306.63,121.99 L 295.07 128.48 L 294.78 137.77 L 294.50 147.07 L 287.25 151.07 L 282.43 153.73 C283.35,153.11 284.45,152.15 285.08,151.36 C285.99,150.24 286.05,149.89 285.25,150.37 C284.39,150.89 284.00,150.36 284.00,148.68 C284.00,147.34 283.35,145.71 282.56,145.05 C281.77,144.39 280.93,142.65 280.71,141.18 C280.48,139.70 280.23,142.23 280.15,146.79 C280.02,153.72 280.10,154.83 281.35,154.32 L 280.00 155.07 L 280.00 146.03 C280.00,141.07 279.80,137.00 279.55,137.00 C278.69,137.00 273.50,139.46 273.00,140.10 C272.73,140.46 268.45,142.99 263.50,145.73 L 254.50 150.72 L 254.24 181.03 C253.98,210.27 253.99,211.32 256.00,213.50 C255.98,213.48 255.95,213.45 255.92,213.42 L 253.00 210.63 L 253.00 181.53 C253.00,153.22 252.95,152.42 251.02,152.28 C249.93,152.19 247.52,150.97 245.67,149.56 C243.82,148.15 241.90,147.00 241.41,147.01 C240.91,147.01 241.77,147.85 243.33,148.88 L 245.13 150.07 L 233.56 143.71 C226.84,140.02 221.04,137.00 220.67,137.00 C220.30,137.00 220.00,141.05 220.00,146.00 C220.00,150.95 219.74,155.00 219.42,155.00 C219.39,155.00 219.33,154.98 219.23,154.94 C219.66,154.98 220.00,150.95 220.00,146.00 ZM 154.21 300.87 C158.88,295.42 162.66,290.97 164.71,288.50 C167.45,285.20 171.56,280.64 173.85,278.37 C176.13,276.09 178.00,273.94 178.00,273.59 C178.00,273.23 179.35,271.49 181.00,269.72 C183.44,267.11 203.11,243.90 216.27,228.12 L 219.04 224.80 L 233.77 238.82 C241.87,246.53 250.96,255.35 253.97,258.42 C256.97,261.49 259.90,263.97 260.47,263.93 C261.59,263.85 266.09,258.70 313.20,203.50 C330.57,183.15 346.66,164.48 348.95,162.00 L 353.11 157.50 L 348.50 163.35 C345.97,166.57 342.81,170.92 341.49,173.02 C340.17,175.11 338.23,177.43 337.18,178.16 C334.01,180.39 323.98,193.16 324.61,194.18 C324.93,194.70 324.43,195.97 323.50,197.00 C320.27,200.57 324.45,202.47 328.82,199.41 C330.59,198.17 331.40,198.08 332.51,199.01 C333.74,200.03 333.70,200.53 332.22,202.57 C331.27,203.88 329.91,204.74 329.20,204.48 C328.48,204.23 328.17,204.47 328.51,205.01 C328.84,205.56 328.59,206.00 327.95,206.00 C327.29,206.00 327.05,206.70 327.40,207.61 C327.84,208.75 327.59,209.06 326.56,208.66 C325.58,208.29 325.28,208.58 325.66,209.55 C325.97,210.36 325.61,211.05 324.86,211.12 C324.11,211.18 323.00,211.29 322.40,211.37 C320.69,211.57 316.00,217.58 316.00,219.55 C316.00,221.29 310.96,228.37 305.17,234.76 C303.54,236.56 300.70,240.08 298.86,242.60 C297.01,245.11 294.26,248.65 292.75,250.46 C289.58,254.26 289.32,255.20 291.66,254.30 C292.91,253.82 293.11,254.01 292.47,255.08 C291.99,255.86 293.26,255.15 295.29,253.50 C298.46,250.91 314.52,232.68 355.14,185.49 C347.56,194.31 338.50,204.87 327.68,217.50 C293.94,256.85 290.28,260.75 283.09,264.95 C279.44,267.08 275.15,270.11 273.57,271.66 C269.55,275.62 263.27,285.51 262.48,289.10 C262.08,290.92 261.27,291.99 260.44,291.81 C259.69,291.64 250.80,283.29 240.68,273.25 C231.35,263.98 223.01,256.27 221.15,255.14 C222.74,256.03 228.32,260.99 234.36,266.92 C246.52,278.86 251.19,283.00 252.53,283.00 C252.92,283.00 252.72,282.37 252.08,281.60 C251.19,280.52 251.21,280.10 252.20,279.77 C253.45,279.35 221.77,247.00 220.10,247.00 C219.10,247.00 206.48,261.70 177.60,296.50 C170.21,305.42 163.99,312.96 158.82,319.32 C161.46,315.89 163.57,313.06 164.62,311.50 C166.48,308.75 169.56,304.58 171.46,302.23 C175.54,297.18 175.22,295.00 170.39,295.00 C166.68,295.00 166.44,294.50 168.16,290.32 C168.80,288.77 169.23,286.94 169.12,286.25 C169.00,285.56 169.46,285.00 170.12,285.00 C170.79,285.00 171.03,284.70 170.66,284.32 C170.29,283.95 170.77,282.69 171.74,281.52 C172.71,280.34 172.15,280.79 170.50,282.52 C168.64,284.46 161.34,292.72 154.21,300.87 ZM 138.50 497.09 C131.66,495.55 139.90,494.09 161.09,493.08 C192.08,491.61 197.71,490.67 205.00,485.79 C207.77,483.94 218.31,481.47 227.43,480.54 C230.70,480.21 233.85,479.55 234.43,479.08 C236.15,477.70 277.63,479.66 284.46,481.44 C287.74,482.30 291.04,483.00 291.81,483.00 C293.70,483.00 299.14,486.97 298.55,487.92 C297.02,490.39 316.63,492.37 355.11,493.63 C372.58,494.20 375.89,494.75 374.57,496.89 C373.81,498.12 143.98,498.32 138.50,497.09 ZM 234.36 142.51 C234.05,141.68 233.50,141.19 233.13,141.42 C232.07,142.08 229.45,139.63 229.47,138.00 C229.51,135.80 231.92,136.02 236.90,138.68 C239.32,139.97 241.47,140.86 241.67,140.66 C241.87,140.46 240.00,139.22 237.52,137.90 C235.03,136.58 233.00,135.22 233.00,134.87 C233.00,134.85 232.99,134.83 232.98,134.80 C239.66,138.53 244.66,141.44 244.93,141.87 C245.25,142.37 246.40,142.99 247.50,143.27 C248.60,143.54 249.59,143.82 249.71,143.88 C250.00,144.05 267.18,135.23 269.00,133.98 C269.83,133.42 272.02,132.04 273.87,130.92 L 277.24 128.88 L 244.60 110.84 L 211.96 92.80 L 198.48 100.15 C191.07,104.19 185.00,107.77 185.00,108.11 C185.00,108.45 187.02,109.80 189.50,111.11 C191.98,112.42 194.00,113.86 194.00,114.31 C194.00,114.75 194.45,114.84 195.00,114.50 C195.55,114.16 196.00,114.36 196.00,114.94 C196.00,115.52 196.61,116.00 197.36,116.00 C198.07,116.00 207.62,120.98 217.97,126.57 C215.29,125.41 215.08,126.26 219.10,128.98 C221.52,130.62 224.06,131.97 224.75,131.98 C225.44,131.99 226.00,132.19 226.00,132.42 C226.00,132.65 226.27,133.54 226.60,134.41 C227.09,135.68 226.60,135.91 224.10,135.62 C222.40,135.42 221.00,135.65 221.00,136.12 C221.00,136.74 232.92,143.55 234.72,143.95 C234.84,143.98 234.68,143.33 234.36,142.51 ZM 286.00 118.28 C288.48,119.73 290.73,120.94 291.00,120.96 C292.13,121.06 304.00,115.65 304.00,115.03 C304.00,114.67 306.70,113.08 310.00,111.50 C313.30,109.92 316.00,108.34 316.00,107.98 C316.00,107.62 314.76,106.76 313.25,106.08 C311.74,105.40 303.75,101.12 295.50,96.57 C274.89,85.20 257.14,75.55 253.23,73.57 C252.42,73.17 251.86,72.82 251.25,72.66 C249.30,72.15 246.86,73.51 234.20,80.58 C233.26,81.10 232.26,81.66 231.20,82.25 L 225.91 85.20 L 253.70 100.42 C268.99,108.80 283.52,116.83 286.00,118.28 ZM 256.00 384.11 C256.00,383.50 256.46,383.00 257.02,383.00 C257.58,383.00 259.95,381.28 262.27,379.19 C265.82,375.99 279.44,367.83 298.58,357.45 C300.83,356.23 305.55,354.93 309.08,354.55 C312.61,354.17 318.12,353.22 321.32,352.43 C325.29,351.46 327.72,351.32 328.97,351.98 C331.45,353.31 341.00,364.85 341.00,366.52 C341.00,367.26 342.01,368.17 343.25,368.54 C347.51,369.83 356.33,380.00 354.65,381.69 C353.03,383.30 347.15,380.24 342.51,375.38 C339.69,372.42 336.83,370.00 336.15,370.00 C335.47,370.00 333.16,369.10 331.00,368.00 C325.42,365.15 306.27,365.07 301.62,367.88 C299.90,368.91 296.70,370.33 294.50,371.03 C292.30,371.73 289.60,372.88 288.50,373.59 C285.47,375.54 271.21,380.91 265.00,382.43 C261.98,383.18 258.71,384.11 257.75,384.50 C256.71,384.93 256.00,384.77 256.00,384.11 ZM 238.00 385.23 C236.24,384.67 220.85,377.53 216.50,375.26 C214.85,374.39 211.70,372.81 209.50,371.73 C207.30,370.66 204.60,368.98 203.50,368.01 C201.18,365.95 191.99,361.00 190.51,361.00 C189.41,361.00 174.16,352.21 171.66,350.13 C170.51,349.18 169.62,349.13 168.06,349.97 C166.93,350.57 166.00,351.46 166.00,351.94 C166.00,352.41 164.54,353.69 162.75,354.78 C160.96,355.86 154.89,360.63 149.25,365.36 C143.61,370.10 139.00,373.72 139.00,373.42 C139.00,373.11 140.72,370.75 142.81,368.18 C144.91,365.61 149.18,360.35 152.31,356.50 C155.43,352.65 160.15,347.08 162.80,344.13 L 167.60 338.76 L 176.55 343.72 C181.47,346.45 191.57,351.97 199.00,356.00 C229.01,372.25 236.72,376.69 241.25,380.33 C243.31,381.98 245.00,383.83 245.00,384.43 C245.00,385.56 240.62,386.06 238.00,385.23 ZM 133.60 353.17 C134.46,354.55 139.22,349.59 155.85,330.00 C161.68,323.12 166.71,317.27 167.02,317.00 C167.03,316.99 167.04,316.98 167.06,316.96 C166.10,318.09 165.34,318.98 164.88,319.50 C163.42,321.15 159.14,326.13 155.36,330.57 C127.70,363.11 113.99,378.61 114.02,377.31 C114.04,376.25 132.29,351.77 137.78,345.44 C139.42,343.55 141.56,340.98 143.92,338.09 C138.39,345.39 136.37,348.80 136.75,349.78 C137.14,350.81 136.94,351.08 136.15,350.59 C135.42,350.14 135.06,350.37 135.23,351.18 C135.38,351.90 134.90,352.38 134.18,352.23 C133.36,352.06 133.14,352.42 133.60,353.17 ZM 494.59 22.86 C495.21,21.85 489.00,14.88 488.02,15.49 C486.92,16.17 480.87,9.47 481.73,8.52 C482.15,8.06 481.94,8.00 481.25,8.40 C480.49,8.83 478.21,7.42 475.42,4.78 C471.04,0.65 470.95,0.44 473.31,0.24 C475.27,0.08 477.82,2.15 485.35,9.99 C495.63,20.70 497.82,23.67 495.49,23.67 C494.72,23.67 494.31,23.30 494.59,22.86 ZM 84.54 323.57 C84.28,325.94 85.02,325.46 91.25,319.23 C98.06,312.42 99.04,310.00 94.97,310.00 C92.57,310.00 84.94,319.91 84.54,323.57 ZM 4.00 23.55 C4.00,21.81 11.27,13.01 17.61,7.09 C22.82,2.23 25.99,0.00 27.70,0.00 C30.04,0.00 29.95,0.20 26.16,3.25 C23.95,5.04 20.32,7.81 18.11,9.41 C15.89,11.01 14.31,12.70 14.60,13.16 C14.88,13.62 14.39,14.00 13.50,14.00 C12.53,14.00 12.17,14.46 12.60,15.15 C13.04,15.87 12.87,16.04 12.15,15.60 C11.52,15.20 11.00,15.26 11.00,15.73 C11.00,16.20 9.43,18.25 7.50,20.29 C5.57,22.33 4.00,23.80 4.00,23.55 ZM 153.00 309.19 C153.00,306.72 157.59,300.70 160.21,299.73 C162.97,298.70 164.95,301.17 163.23,303.50 C162.28,304.80 154.28,311.00 153.56,311.00 C153.25,311.00 153.00,310.19 153.00,309.19 ZM 36.82 22.53 C47.61,12.59 59.64,4.02 66.25,2.48 C67.76,2.13 69.00,1.43 69.00,0.92 C69.00,0.74 76.49,0.58 90.35,0.46 C77.52,0.75 75.62,1.24 73.00,2.06 C59.90,6.15 47.49,13.27 36.82,22.53 ZM 309.48 213.96 C310.56,215.72 312.87,215.11 314.11,212.75 C315.70,209.74 317.17,208.90 318.67,210.14 C319.95,211.20 322.00,210.53 322.00,209.06 C322.00,208.60 320.85,207.48 319.44,206.55 C316.93,204.91 316.82,204.94 312.86,208.90 C310.65,211.12 309.13,213.39 309.48,213.96 ZM 421.60 0.15 L 431.50 0.16 L 435.64 2.83 C437.92,4.30 443.10,7.50 447.14,9.95 C449.65,11.47 452.06,13.04 454.38,14.65 C447.06,10.13 437.00,5.32 428.77,2.56 ZM 0.41 138.71 L 0.50 84.50 L 4.75 72.21 C6.15,68.17 7.35,64.87 8.51,61.96 C5.94,68.64 3.59,76.51 2.37,82.87 C1.01,89.96 0.66,99.84 0.41,138.71 ZM 293.91 159.13 C294.26,159.80 294.66,160.73 295.17,161.97 C295.90,163.72 296.67,165.27 297.22,166.17 C296.86,165.83 296.45,165.39 296.02,164.89 C294.63,163.25 294.19,163.05 294.61,164.26 C295.07,165.59 294.82,165.87 293.61,165.40 C292.69,165.05 292.01,163.66 292.02,162.14 C292.03,160.07 292.24,159.82 293.00,161.00 C293.80,162.23 293.97,162.13 293.98,160.42 C293.99,159.92 293.96,159.49 293.91,159.13 ZM 245.77 150.49 L 246.16 150.75 L 246.55 176.87 C246.58,178.67 246.60,180.35 246.62,181.93 C246.54,178.39 246.43,174.27 246.29,169.46 ZM 360.13 117.33 C358.27,119.58 355.87,122.39 353.25,125.37 C349.42,129.74 342.18,138.09 334.49,147.00 C345.06,134.67 351.79,126.76 354.00,124.06 C355.72,121.96 358.32,119.11 360.13,117.33 ZM 308.39 297.58 C306.80,293.43 306.00,297.09 306.00,308.50 L 306.00 307.56 C306.00,300.17 306.39,293.88 306.87,293.58 C307.54,293.17 308.07,294.65 308.44,297.72 C308.42,297.66 308.41,297.62 308.39,297.58 ZM 475.77 33.95 C484.57,44.39 490.98,56.38 495.16,70.12 C491.03,56.84 484.35,44.44 475.77,33.95 ZM 280.64 192.29 C287.95,183.67 294.45,175.65 294.97,174.27 C294.97,174.32 294.98,174.36 294.97,174.39 C294.96,175.00 292.82,178.02 290.22,181.10 C287.41,184.43 284.07,188.34 280.64,192.29 ZM 295.00 252.00 C295.00,252.55 294.52,253.00 293.94,253.00 C293.36,253.00 293.16,252.55 293.50,252.00 C293.84,251.45 294.32,251.00 294.56,251.00 C294.80,251.00 295.00,251.45 295.00,252.00 ZM 319.00 207.39 C319.00,207.54 318.34,207.67 317.54,207.67 C316.74,207.67 316.32,207.28 316.61,206.82 C317.06,206.10 319.00,206.56 319.00,207.39 ZM 356.98 106.66 C358.59,107.82 360.14,108.97 361.37,109.94 C361.09,109.76 360.80,109.59 360.50,109.43 C358.58,108.39 357.00,107.20 357.00,106.77 C357.00,106.74 356.99,106.70 356.98,106.66 ZM 401.29 195.92 C400.22,195.35 399.52,195.00 399.46,195.00 C399.29,195.00 395.39,192.86 390.79,190.25 C386.18,187.64 380.74,184.64 378.71,183.59 C376.67,182.55 375.01,181.18 375.00,180.56 C375.01,181.18 376.68,182.55 378.72,183.59 C380.77,184.64 384.48,186.66 386.97,188.07 C389.46,189.49 395.10,192.58 399.50,194.96 C400.12,195.29 400.72,195.61 401.29,195.92 ZM 215.12 152.79 C214.14,152.23 213.05,151.61 211.92,150.96 L 205.00 146.91 L 205.00 146.68 L 211.75 150.79 C212.94,151.51 214.09,152.19 215.12,152.79 ZM 109.04 351.53 C109.37,351.65 111.59,349.48 115.59,345.14 C114.08,346.84 112.91,348.16 112.29,348.86 C110.57,350.80 109.15,351.97 109.04,351.53 ZM 408.33 68.98 C408.57,68.88 408.80,68.79 409.00,68.71 C410.38,68.16 416.56,66.02 422.75,63.95 L 426.37 62.75 L 422.75 63.99 C419.49,65.10 414.16,66.94 408.33,68.98 ZM 292.74 167.83 C290.08,161.76 289.38,160.06 289.94,159.12 C290.14,158.79 290.50,158.55 290.99,158.24 C289.36,159.26 289.44,159.79 292.12,166.30 C292.34,166.82 292.54,167.33 292.74,167.83 ZM 228.99 132.58 C227.09,131.72 224.19,130.14 222.05,128.80 C222.00,128.76 221.95,128.73 221.90,128.70 C224.30,130.01 226.70,131.32 228.99,132.58 ZM 298.09 166.86 C298.54,166.20 299.46,163.28 300.27,159.81 C301.86,153.05 304.10,149.01 305.55,150.22 C304.13,149.03 301.94,152.92 300.35,159.52 C299.43,163.36 298.53,166.68 298.36,166.89 C298.32,166.94 298.22,166.93 298.09,166.86 ZM 269.69 221.78 C270.89,220.41 272.05,219.09 273.18,217.80 L 259.85 233.08 L 259.83 233.06 ZM 367.22 171.44 C380.15,156.40 387.15,148.38 390.62,144.67 C387.38,148.16 380.72,155.77 367.22,171.44 ZM 130.23 328.63 C133.17,325.25 136.23,321.74 139.25,318.23 C137.81,319.97 134.24,324.08 130.23,328.63 ZM 259.57 215.63 C260.04,215.35 261.17,214.26 262.74,212.61 C261.15,214.34 260.13,215.42 259.91,215.55 C259.83,215.61 259.71,215.63 259.57,215.63 ZM 499.00 84.39 L 499.00 84.39 L 499.00 102.45 L 498.98 113.97 ZM 220.81 255.00 C219.99,255.09 214.48,260.89 208.22,268.25 C214.53,260.83 220.05,255.00 220.79,255.00 ZM 416.94 208.02 C416.92,206.91 416.90,206.04 416.87,205.43 C416.95,205.63 416.97,205.81 416.97,206.00 C416.95,206.61 416.94,207.28 416.94,208.02 ZM 305.77 163.21 C303.74,165.37 302.36,166.70 302.25,166.58 C302.25,166.58 302.25,166.58 302.24,166.58 C302.38,166.66 303.75,165.34 305.77,163.21 ZM 299.61 187.48 C297.17,190.30 295.22,192.55 294.00,193.94 C293.73,194.25 293.44,194.58 293.13,194.94 C295.40,192.32 297.54,189.86 299.61,187.48 ZM 382.25 171.18 C378.37,175.75 375.00,180.00 375.00,180.55 C375.00,179.99 378.36,175.76 382.25,171.18 ZM 292.30 157.63 C291.94,157.71 291.51,157.91 291.02,158.22 L 291.14 158.14 C291.61,157.85 291.98,157.66 292.30,157.63 ZM 19.52 41.60 C20.00,40.91 20.50,40.21 21.04,39.51 C20.52,40.20 20.02,40.89 19.52,41.60 Z" fill="rgb(152,17,39)"/>
<path d="M 78.15 283.26 C76.77,278.11 75.25,209.84 76.37,203.83 C77.02,200.37 77.83,199.72 90.78,192.14 C98.33,187.72 107.82,181.95 111.87,179.30 C115.93,176.66 121.02,173.49 123.20,172.25 C125.37,171.01 129.71,168.08 132.83,165.73 C135.95,163.38 139.62,160.85 141.00,160.12 C144.48,158.26 149.01,152.64 150.59,148.21 C152.88,141.80 152.28,130.68 149.00,118.50 C147.37,112.45 146.03,105.84 146.02,103.81 C146.01,101.78 145.55,99.84 145.00,99.50 C144.45,99.16 144.00,97.95 144.00,96.81 C144.00,93.96 140.62,91.28 136.06,90.51 C131.02,89.66 125.68,83.89 126.41,80.10 C126.84,77.88 125.93,76.63 120.05,71.50 C116.28,68.20 112.75,64.35 112.21,62.94 C111.68,61.53 110.50,59.64 109.60,58.74 C108.70,57.84 107.57,55.01 107.09,52.46 C106.62,49.91 105.72,47.32 105.11,46.71 C104.50,46.10 104.00,43.17 104.00,40.21 C104.00,36.33 103.44,34.10 102.00,32.27 C99.81,29.49 99.44,26.96 101.01,25.39 C102.11,24.29 102.38,18.97 101.68,12.03 C101.33,8.67 101.63,7.25 102.86,6.31 C104.25,5.26 104.27,5.05 103.00,4.96 C101.95,4.89 102.10,4.57 103.50,3.91 C104.84,3.28 102.31,3.14 95.90,3.49 C57.81,5.58 24.37,30.96 11.03,67.91 C5.53,83.15 5.00,90.68 4.99,154.13 C4.99,204.79 4.82,211.18 3.54,208.73 C1.43,204.67 0.51,193.66 0.36,166.08 L 0.41 138.71 C0.66,99.84 1.01,89.96 2.37,82.87 C3.59,76.51 5.94,68.64 8.51,61.96 C11.33,54.91 13.91,50.21 18.45,43.19 C18.78,42.67 19.14,42.13 19.52,41.60 C20.02,40.89 20.52,40.20 21.04,39.51 C25.13,34.08 30.78,28.09 36.82,22.53 C47.49,13.27 59.90,6.15 73.00,2.06 C75.62,1.24 77.52,0.75 90.35,0.46 C118.47,0.20 172.79,0.05 243.93,0.08 C227.61,0.15 212.77,0.46 211.50,1.00 C210.34,1.50 225.88,1.89 248.69,1.93 C273.82,1.97 288.10,1.64 288.50,1.00 C288.83,0.47 275.68,0.17 260.15,0.08 L 421.60 0.15 L 428.77 2.56 C437.00,5.32 447.06,10.13 454.38,14.65 C462.66,20.42 469.77,26.82 475.77,33.95 C484.35,44.44 491.03,56.84 495.16,70.12 C495.61,71.59 496.03,73.07 496.43,74.58 L 499.00 84.39 L 498.98 113.97 L 498.86 188.60 C498.71,208.24 498.33,209.41 497.28,207.50 C495.83,204.86 495.55,197.42 494.94,145.00 C494.29,89.65 494.10,84.98 492.21,78.00 C485.55,53.35 472.97,35.06 452.50,20.29 C442.79,13.29 429.08,7.20 419.27,5.55 C415.44,4.90 415.19,5.00 415.69,6.92 C415.99,8.07 416.82,9.00 417.53,9.00 C419.90,9.00 419.68,11.37 417.11,13.58 L 414.58 15.76 L 417.15 19.13 C419.97,22.82 424.79,24.63 433.69,25.34 C436.57,25.58 440.40,26.70 442.31,27.88 C444.19,29.05 446.41,30.00 447.23,30.00 C452.02,30.00 457.40,38.34 459.40,48.84 C460.58,55.03 460.44,56.87 457.39,75.00 C455.59,85.72 453.61,96.07 452.98,98.00 C451.57,102.37 449.89,109.27 446.67,124.00 C445.28,130.32 443.67,136.77 443.07,138.32 C442.48,139.86 442.00,142.48 442.00,144.12 C442.00,151.12 434.11,174.02 430.75,176.80 C429.41,177.91 429.07,177.78 428.48,175.94 C428.11,174.76 428.10,171.24 428.47,168.14 C428.65,166.62 429.29,162.34 430.19,156.50 C431.16,150.67 432.34,143.43 433.51,136.00 C436.00,120.32 438.78,103.45 439.70,98.50 C440.01,96.84 440.30,94.83 440.56,92.73 C441.75,85.67 443.60,74.40 445.02,65.50 C446.70,55.05 448.31,45.71 448.60,44.75 C448.93,43.68 448.61,43.00 447.77,43.00 C447.02,43.00 437.42,46.20 426.45,50.11 C415.48,54.03 397.73,60.28 387.00,64.01 C347.85,77.64 315.62,89.05 315.26,89.41 C314.94,89.73 336.08,106.45 344.55,112.58 L 347.42 114.65 L 339.46 123.80 L 331.50 132.94 L 331.22 118.57 C331.19,116.99 331.18,115.59 331.17,114.33 C331.14,109.44 331.12,106.76 329.98,104.69 C328.31,101.65 324.20,99.94 314.04,94.48 C307.69,91.07 297.55,85.59 291.50,82.29 C285.45,79.00 273.64,72.59 265.27,68.06 L 250.03 59.83 L 234.77 68.05 C226.37,72.57 212.98,79.77 205.00,84.05 C197.02,88.33 185.77,94.46 180.00,97.67 L 169.50 103.50 L 169.00 130.45 L 168.50 157.39 L 165.00 159.34 C163.07,160.42 159.25,162.75 156.50,164.52 C154.84,165.59 151.23,167.69 147.05,170.04 C143.60,171.87 140.00,173.80 137.00,175.45 C134.29,176.94 130.04,179.26 125.17,181.92 C107.41,191.46 87.28,202.19 85.00,203.33 L 82.50 204.58 L 82.24 245.69 C82.03,278.44 81.71,286.90 80.67,287.30 C79.80,287.63 78.95,286.28 78.15,283.26 ZM 367.22 171.44 C363.68,175.55 359.68,180.20 355.14,185.49 C314.52,232.68 298.46,250.91 295.29,253.50 C293.26,255.15 291.99,255.86 292.47,255.08 C293.11,254.01 292.91,253.82 291.66,254.30 C289.32,255.20 289.58,254.26 292.75,250.46 C294.26,248.65 297.01,245.11 298.86,242.60 C300.70,240.08 303.54,236.56 305.17,234.76 C310.96,228.37 316.00,221.29 316.00,219.55 C316.00,217.58 320.69,211.57 322.40,211.37 C323.00,211.29 324.11,211.18 324.86,211.12 C325.61,211.05 325.97,210.36 325.66,209.55 C325.28,208.58 325.58,208.29 326.56,208.66 C327.59,209.06 327.84,208.75 327.40,207.61 C327.05,206.70 327.29,206.00 327.95,206.00 C328.59,206.00 328.84,205.56 328.51,205.01 C328.17,204.47 328.48,204.23 329.20,204.48 C329.91,204.74 331.27,203.88 332.22,202.57 C333.70,200.53 333.74,200.03 332.51,199.01 C331.40,198.08 330.59,198.17 328.82,199.41 C324.45,202.47 320.27,200.57 323.50,197.00 C324.43,195.97 324.93,194.70 324.61,194.18 C323.98,193.16 334.01,180.39 337.18,178.16 C338.23,177.43 340.17,175.11 341.49,173.02 C342.81,170.92 345.97,166.57 348.50,163.35 L 353.11 157.50 L 348.95 162.00 C346.66,164.48 330.57,183.15 313.20,203.50 C282.74,239.19 270.10,253.96 264.66,259.96 C269.68,254.07 282.37,239.24 296.83,222.38 C315.16,201.00 332.79,180.35 336.02,176.50 C339.25,172.65 344.05,166.92 346.69,163.77 C349.34,160.61 352.52,157.32 353.77,156.45 C355.01,155.58 355.80,154.48 355.51,154.02 C355.23,153.56 356.46,151.95 358.25,150.45 C360.04,148.94 361.50,147.33 361.50,146.87 C361.50,146.41 362.52,145.32 363.77,144.45 C365.01,143.58 365.79,142.47 365.50,142.00 C365.20,141.52 366.97,139.45 369.43,137.39 C371.89,135.34 373.72,133.36 373.49,132.99 C373.27,132.62 375.64,129.66 378.76,126.41 C381.89,123.16 384.35,120.19 384.24,119.81 C384.13,119.42 385.38,118.15 387.03,116.98 C388.68,115.81 389.79,114.48 389.52,114.02 C389.24,113.57 390.69,111.72 392.75,109.90 C394.81,108.09 396.40,106.28 396.28,105.88 C396.15,105.49 397.58,103.82 399.45,102.17 C401.32,100.53 402.65,98.98 402.39,98.73 C402.14,98.47 403.49,96.90 405.39,95.23 C407.30,93.56 408.63,91.96 408.35,91.68 C408.07,91.40 409.21,90.16 410.88,88.93 C412.55,87.69 413.70,86.33 413.43,85.89 C413.16,85.46 414.29,84.11 415.93,82.89 C417.58,81.68 418.72,80.35 418.46,79.94 C418.21,79.53 419.69,77.72 421.75,75.91 C423.81,74.10 425.50,72.29 425.50,71.89 C425.50,71.49 427.41,69.03 429.75,66.43 C431.69,64.27 433.33,62.20 433.84,61.31 L 433.42 64.35 C433.10,66.63 429.75,87.40 425.97,110.50 C422.18,133.60 418.79,154.86 418.42,157.75 C418.05,160.64 417.46,163.00 417.12,162.99 C416.78,162.98 411.44,158.26 405.25,152.49 C399.06,146.72 393.78,142.00 393.52,142.00 C393.27,142.00 392.53,142.62 390.62,144.67 C387.15,148.38 380.15,156.40 367.22,171.44 ZM 354.50 306.21 C354.50,298.48 354.00,294.07 352.70,290.35 C350.80,284.88 346.21,277.20 342.29,272.90 C340.11,270.52 339.94,269.58 340.21,261.50 L 340.50 252.70 L 352.90 245.85 C356.25,244.00 359.34,242.31 361.63,241.08 L 355.95 244.33 C350.98,247.17 345.58,250.14 343.95,250.93 C342.33,251.72 341.00,252.95 341.00,253.68 C341.00,254.41 341.70,255.00 342.56,255.00 C343.42,255.00 343.87,254.60 343.57,254.11 C342.88,252.99 347.73,249.72 348.96,250.47 C349.45,250.78 352.19,250.11 355.04,248.98 C360.90,246.68 363.67,247.07 364.30,250.30 C364.54,251.51 364.79,249.50 364.86,245.83 L 365.00 239.29 C365.37,239.10 365.59,239.00 365.62,239.00 C365.79,239.00 366.05,243.04 366.21,247.97 L 366.50 256.94 L 381.00 248.93 L 381.00 230.03 L 385.95 227.51 C380.80,230.14 380.79,230.32 381.37,233.82 C381.70,235.85 381.98,239.21 381.99,241.29 L 382.00 245.08 L 384.19 243.04 C387.26,240.18 395.71,240.20 399.37,243.07 C401.83,245.01 402.00,245.67 402.00,253.43 C402.00,263.51 402.96,271.14 404.13,270.42 C404.61,270.12 405.00,270.81 405.00,271.94 C405.00,273.07 405.45,274.00 406.00,274.00 C406.26,274.00 406.48,272.29 406.64,269.01 L 406.50 288.30 L 390.50 297.24 C381.70,302.16 370.00,308.60 364.50,311.55 L 354.50 316.91 ZM 293.91 159.13 C293.73,157.90 293.22,157.41 292.30,157.63 C291.98,157.66 291.61,157.85 291.14,158.14 L 291.02 158.22 L 291.02 158.22 C291.01,158.23 291.00,158.23 290.99,158.24 C290.50,158.55 290.14,158.79 289.94,159.12 C289.38,160.06 290.08,161.76 292.74,167.83 C293.95,170.87 294.87,173.52 294.97,174.27 C294.45,175.65 287.95,183.67 280.64,192.29 C273.78,200.22 266.60,208.37 262.74,212.61 C261.17,214.26 260.04,215.35 259.57,215.63 C258.81,215.62 257.35,214.77 256.00,213.50 C253.99,211.32 253.98,210.27 254.24,181.03 L 254.43 159.13 C254.55,159.01 254.73,158.51 254.98,157.69 C256.16,153.91 257.87,152.00 260.05,152.00 C261.04,152.00 262.53,151.32 263.36,150.50 C264.18,149.68 265.26,149.00 265.74,149.00 C266.23,149.00 267.88,147.69 269.42,146.08 C271.93,143.46 276.23,141.39 278.25,141.84 C278.66,141.93 279.00,140.88 279.00,139.52 C279.00,137.27 278.85,137.12 276.49,138.15 C277.84,137.52 279.15,137.00 279.55,137.00 C279.80,137.00 280.00,141.07 280.00,146.03 L 280.00 155.07 L 281.35 154.32 C281.49,154.27 281.65,154.19 281.83,154.09 C282.02,153.99 282.22,153.87 282.43,153.73 L 287.25 151.07 L 294.50 147.07 L 294.78 137.77 L 295.07 128.48 L 304.46 123.21 C296.84,127.55 295.01,129.07 295.00,130.75 C295.00,133.70 295.40,133.62 301.01,129.59 C306.19,125.86 310.22,123.65 313.83,122.54 L 316.15 121.82 L 315.83 136.27 L 315.50 150.72 L 317.55 149.38 C315.98,151.66 313.89,154.18 311.06,157.39 C309.09,159.61 307.25,161.63 305.77,163.21 C303.75,165.34 302.38,166.66 302.24,166.58 C302.06,166.32 302.89,162.75 304.10,158.60 C305.32,154.41 306.01,150.67 305.63,150.30 C305.61,150.27 305.58,150.25 305.55,150.22 C304.10,149.01 301.86,153.05 300.27,159.81 C299.46,163.28 298.54,166.20 298.09,166.86 C297.88,166.75 297.58,166.51 297.22,166.17 C296.67,165.27 295.90,163.72 295.17,161.97 C294.66,160.73 294.26,159.80 293.91,159.13 ZM 401.29 195.92 C400.72,195.61 400.12,195.29 399.50,194.96 C395.10,192.58 389.46,189.49 386.97,188.07 C384.48,186.66 380.77,184.64 378.72,183.59 C376.68,182.55 375.01,181.18 375.00,180.56 L 375.00 180.55 C375.00,180.00 378.37,175.75 382.25,171.18 C386.14,166.60 390.55,161.68 392.63,159.79 L 392.63 159.79 C394.66,158.00 394.92,158.18 403.59,167.03 C408.47,172.03 413.71,178.10 415.22,180.52 C417.96,184.92 418.03,188.00 415.39,188.00 C412.17,188.00 415.83,195.34 420.94,199.11 L 424.00 201.38 L 423.94 229.94 C423.85,269.74 422.18,284.59 419.25,271.73 C418.55,268.65 417.38,238.69 417.03,219.18 C417.02,214.49 416.98,210.61 416.94,208.02 C416.94,207.28 416.95,206.61 416.97,206.00 C416.97,205.81 416.95,205.63 416.87,205.43 C416.85,204.84 416.82,204.51 416.79,204.48 C416.39,204.13 405.68,198.24 401.29,195.92 ZM 254.00 336.00 C254.00,317.85 254.38,303.00 254.85,303.00 C256.82,303.00 258.83,306.88 259.51,312.00 C260.32,318.20 264.32,329.59 266.53,332.04 C267.61,333.23 268.00,336.24 268.00,343.41 C268.00,350.77 268.31,353.07 269.25,352.75 C270.04,352.49 270.61,349.89 270.80,345.64 C271.15,337.65 273.00,337.58 273.00,345.56 C273.00,350.96 273.80,352.15 275.79,349.75 C276.88,348.43 277.00,348.01 277.00,345.35 C277.00,343.81 277.13,343.81 278.83,345.35 C279.83,346.26 280.95,347.00 281.30,347.00 C281.66,347.00 283.32,347.83 285.00,348.85 L 288.05 350.71 L 271.49 359.85 C262.38,364.88 254.72,369.00 254.47,369.00 C254.21,369.00 254.00,354.15 254.00,336.00 ZM 133.60 353.17 C133.14,352.42 133.36,352.06 134.18,352.23 C134.90,352.38 135.38,351.90 135.23,351.18 C135.06,350.37 135.42,350.14 136.15,350.59 C136.94,351.08 137.14,350.81 136.75,349.78 C136.37,348.80 138.39,345.39 143.92,338.09 C148.74,332.20 154.49,324.95 158.82,319.32 C163.99,312.96 170.21,305.42 177.60,296.50 C206.48,261.70 219.10,247.00 220.10,247.00 C221.77,247.00 253.45,279.35 252.20,279.77 C251.21,280.10 251.19,280.52 252.08,281.60 C252.72,282.37 252.92,283.00 252.53,283.00 C251.19,283.00 246.52,278.86 234.36,266.92 C228.32,260.99 222.74,256.03 221.15,255.14 C221.00,255.05 220.89,255.00 220.83,255.00 C220.82,255.00 220.82,255.00 220.81,255.00 C220.05,255.00 214.53,260.83 208.22,268.25 C207.80,268.74 207.37,269.24 206.95,269.75 C192.43,287.00 190.68,289.05 185.93,294.45 C183.97,296.68 179.03,302.55 174.95,307.50 C172.15,310.89 169.14,314.50 167.06,316.96 C167.04,316.98 167.03,316.99 167.02,317.00 C166.71,317.27 161.68,323.12 155.85,330.00 C139.22,349.59 134.46,354.55 133.60,353.17 ZM 206.55 347.68 C199.07,343.64 192.66,340.20 189.25,338.40 L 180.00 333.53 L 180.03 326.01 L 180.06 318.50 L 195.09 301.00 C203.35,291.38 210.47,283.14 210.90,282.70 C211.29,282.31 214.17,283.49 219.89,286.41 C216.80,284.90 216.54,285.06 215.60,286.65 C213.89,289.55 200.25,318.44 195.47,329.28 L 191.17 339.06 L 193.33 340.38 C194.21,340.92 199.60,343.89 206.55,347.68 ZM 309.00 307.00 C309.00,318.89 309.09,320.72 310.45,320.96 C309.10,320.74 309.00,319.22 309.00,310.08 C309.00,304.33 308.75,298.93 308.44,297.72 C308.07,294.65 307.54,293.17 306.87,293.58 C306.39,293.88 306.00,300.17 306.00,307.56 L 306.00 293.00 L 301.00 293.00 L 301.00 308.06 C301.00,300.94 300.61,294.88 300.14,294.59 C299.49,294.19 298.83,297.76 298.41,302.90 C298.49,298.03 298.36,293.98 297.94,293.55 C296.49,292.09 295.84,293.47 295.72,299.40 C295.43,295.96 294.86,294.97 293.90,295.56 C293.40,295.87 293.00,301.72 293.00,308.56 L 293.00 321.00 L 292.99 309.25 C292.98,302.79 292.70,296.49 292.37,295.25 C291.86,293.36 289.44,292.41 288.31,293.29 C288.46,292.76 288.65,292.33 288.90,291.94 C289.33,291.23 289.94,290.63 290.77,289.75 C293.09,287.30 296.23,285.38 299.61,284.22 C299.48,284.48 299.63,284.78 300.17,285.12 C300.90,285.58 302.21,285.73 303.08,285.46 C305.69,284.65 313.33,284.59 316.00,285.36 L 318.50 286.08 L 316.00 284.58 C314.10,283.43 309.55,282.95 305.72,283.02 C306.04,283.01 306.37,283.00 306.69,283.00 C314.72,283.00 317.70,283.98 322.50,288.21 L 327.00 292.17 L 327.00 293.00 L 321.00 293.00 L 321.00 301.85 C320.53,293.56 319.60,292.89 319.20,299.72 C319.11,296.29 318.89,293.80 318.50,293.66 C315.99,292.75 315.38,294.17 316.11,299.27 C316.15,299.53 316.18,299.81 316.22,300.12 C315.75,296.89 315.11,295.00 314.36,295.00 C313.79,295.00 313.44,295.76 313.24,298.00 C313.04,293.45 312.21,293.00 309.92,293.00 C309.40,293.00 309.00,299.16 309.00,307.00 ZM 365.48 215.89 C358.34,212.01 352.17,208.52 351.76,208.13 C350.97,207.38 364.70,190.91 366.63,190.28 C367.26,190.08 368.39,190.49 369.16,191.21 C369.92,191.92 371.21,192.64 372.02,192.81 C373.01,193.02 380.15,196.72 387.21,200.53 C380.30,196.97 376.64,195.61 377.50,196.99 C378.02,197.84 365.03,209.87 361.60,211.72 C359.95,212.61 360.97,213.44 369.09,217.83 L 378.48 222.92 L 378.45 222.94 ZM 330.50 242.83 C327.20,241.14 324.33,239.60 324.12,239.41 C323.67,239.01 340.95,219.00 341.75,219.00 C342.41,219.00 348.96,222.48 354.61,225.66 C352.70,224.70 351.07,224.00 350.55,224.00 C349.95,224.00 345.07,228.05 339.71,233.01 L 329.97 242.01 L 333.23 244.00 C333.76,244.32 334.27,244.61 334.76,244.86 C333.57,244.35 332.07,243.63 330.50,242.83 ZM 276.00 180.26 L 276.00 174.59 L 279.96 178.46 C285.72,184.08 287.00,182.61 287.00,170.38 C287.00,165.22 286.81,161.00 286.58,161.00 C283.79,161.00 283.00,162.61 283.00,168.31 L 283.00 174.41 L 279.17 170.67 C273.17,164.81 272.00,166.04 272.00,178.14 C272.00,187.76 272.06,188.04 274.00,187.00 C275.64,186.12 276.00,184.91 276.00,180.26 ZM 370.80 294.60 L 371.11 288.71 L 374.45 291.95 C376.40,293.84 378.56,295.04 379.64,294.83 C381.28,294.52 381.53,293.30 381.79,284.74 C381.94,279.38 381.87,275.00 381.62,275.00 C378.79,275.00 378.00,276.59 378.00,282.31 L 378.00 288.41 L 374.17 284.67 C368.23,278.87 367.00,280.07 367.00,291.68 C367.00,300.16 367.18,301.11 368.75,300.81 C370.14,300.55 370.56,299.26 370.80,294.60 ZM 393.19 287.67 C394.75,286.11 400.50,266.16 399.63,265.30 C398.26,263.93 396.11,267.53 394.42,274.03 C393.43,277.86 392.29,281.00 391.89,281.00 C391.49,281.00 390.39,278.98 389.45,276.50 C387.73,272.00 386.68,271.28 384.16,272.88 C383.09,273.56 383.53,275.29 386.34,281.37 C389.95,289.17 390.85,290.00 393.19,287.67 ZM 323.97 260.74 C320.07,259.27 315.25,258.02 312.92,258.01 C308.91,257.99 308.80,257.04 312.28,252.75 C314.05,250.57 316.20,247.90 317.05,246.83 C318.57,244.92 318.77,244.97 325.80,249.02 L 333.00 253.17 L 333.00 258.48 C333.00,253.16 332.88,252.91 329.49,251.29 C325.65,249.46 325.48,249.56 322.13,255.17 L 319.94 258.84 ZM 98.94 335.75 C102.56,332.28 107.28,327.92 110.00,325.55 C113.03,322.91 115.50,320.40 115.50,319.99 C115.50,318.43 136.95,296.11 137.53,297.05 C137.87,297.59 138.53,297.79 139.00,297.50 C139.47,297.21 140.19,297.49 140.59,298.14 C141.07,298.93 140.85,299.05 139.90,298.51 C138.80,297.88 138.75,297.98 139.69,298.99 C140.41,299.78 141.09,299.80 142.53,298.80 C135.96,304.14 130.20,308.81 124.42,313.47 C116.14,320.15 105.87,329.13 98.94,335.75 ZM 229.09 282.96 C223.36,279.73 218.28,276.68 217.80,276.20 C217.29,275.69 217.74,274.31 218.84,272.95 L 220.75 270.59 L 226.63 275.71 C232.49,280.82 240.81,289.07 239.95,288.92 C239.70,288.88 234.81,286.20 229.09,282.96 ZM 264.00 356.02 C265.17,355.28 265.51,352.77 265.56,344.54 C265.59,338.74 265.45,334.00 265.24,334.00 C265.04,334.00 264.00,334.47 262.93,335.04 C261.21,335.96 261.00,337.21 261.00,346.54 C261.00,352.29 261.34,356.99 261.75,356.98 C262.16,356.98 263.17,356.54 264.00,356.02 ZM 362.80 304.80 C364.11,303.49 364.36,296.90 363.37,289.67 C362.82,285.70 362.50,285.20 361.01,286.00 C359.52,286.79 359.33,288.20 359.63,296.21 C359.82,301.32 359.99,305.61 359.99,305.75 C360.01,306.44 361.74,305.86 362.80,304.80 ZM 266.42 191.39 C267.71,190.90 268.00,189.03 268.00,181.32 C268.00,172.84 267.82,171.89 266.25,172.19 C264.75,172.48 264.46,173.92 264.21,182.26 C264.06,187.62 264.13,192.00 264.38,192.00 C264.63,192.00 265.55,191.73 266.42,191.39 ZM 84.54 323.57 C84.94,319.91 92.57,310.00 94.97,310.00 C99.04,310.00 98.06,312.42 91.25,319.23 C85.02,325.46 84.28,325.94 84.54,323.57 ZM 309.48 213.96 C309.13,213.39 310.65,211.12 312.86,208.90 C316.82,204.94 316.93,204.91 319.44,206.55 C320.85,207.48 322.00,208.60 322.00,209.06 C322.00,210.53 319.95,211.20 318.67,210.14 C317.17,208.90 315.70,209.74 314.11,212.75 C312.87,215.11 310.56,215.72 309.48,213.96 ZM 144.98 296.80 C148.07,294.01 151.16,290.17 149.24,291.35 C148.63,291.73 147.86,291.58 147.51,291.02 C147.16,290.46 147.43,290.00 148.11,290.00 C148.78,290.00 149.03,289.70 148.66,289.33 C147.80,288.47 153.09,284.94 154.20,285.63 C154.66,285.91 154.75,286.59 154.41,287.14 C153.72,288.27 157.55,286.27 160.26,284.09 C161.81,282.84 162.48,282.55 162.22,283.27 C161.11,283.89 156.80,287.18 151.83,291.23 C149.43,293.18 147.16,295.03 144.98,296.80 ZM 352.87 206.39 C352.07,208.00 352.38,207.87 354.16,205.84 C355.45,204.38 357.51,202.68 358.75,202.06 C359.99,201.44 361.00,200.14 361.00,199.16 C361.00,198.19 361.34,196.95 361.75,196.39 C362.16,195.84 360.57,197.38 358.21,199.83 C355.85,202.28 353.45,205.23 352.87,206.39 ZM 332.57 229.54 C330.95,232.01 330.95,232.05 332.93,230.81 C335.11,229.45 336.49,227.00 335.08,227.00 C334.61,227.00 333.48,228.14 332.57,229.54 ZM 295.00 252.00 C295.00,251.45 294.80,251.00 294.56,251.00 C294.32,251.00 293.84,251.45 293.50,252.00 C293.16,252.55 293.36,253.00 293.94,253.00 C294.52,253.00 295.00,252.55 295.00,252.00 ZM 319.00 207.39 C319.00,206.56 317.06,206.10 316.61,206.82 C316.32,207.28 316.74,207.67 317.54,207.67 C318.34,207.67 319.00,207.54 319.00,207.39 ZM 433.91 60.81 C433.22,60.57 428.61,61.97 415.10,66.62 C418.16,65.56 420.82,64.65 422.75,63.99 L 426.37 62.75 L 433.99 60.21 ZM 296.96 320.99 C297.36,320.83 297.73,317.60 298.00,313.41 C298.00,313.49 298.00,313.57 298.00,313.65 C298.00,317.88 297.58,321.00 297.00,321.00 C296.99,321.00 296.97,321.00 296.96,320.99 ZM 288.00 321.00 L 287.93 313.16 L 288.11 321.00 ZM 319.68 145.84 C319.83,144.68 319.91,143.04 319.96,140.65 L 319.95 145.29 C319.86,145.47 319.77,145.65 319.68,145.84 ZM 296.80 320.83 C296.43,320.17 296.17,317.66 296.06,313.88 C296.26,317.50 296.54,320.15 296.80,320.83 ZM 328.69 262.92 C330.90,263.86 331.98,264.01 332.51,263.18 C331.96,264.24 330.87,264.03 328.69,262.92 ZM 310.97 321.00 C312.25,320.99 312.69,320.51 312.94,315.70 C312.81,320.65 312.38,321.00 311.00,321.00 ZM 317.97 321.00 C318.31,320.91 318.61,318.94 318.82,316.09 C318.65,319.22 318.37,321.00 318.00,321.00 C317.99,321.00 317.98,321.00 317.97,321.00 ZM 321.67 320.33 C321.75,320.41 321.87,320.49 322.04,320.56 L 321.50 320.50 L 321.48 319.62 C321.54,320.02 321.60,320.27 321.67,320.33 ZM 317.66 320.63 C317.35,319.92 317.12,318.24 317.04,316.07 C317.17,318.24 317.39,319.92 317.66,320.63 ZM 260.79 263.81 C260.65,263.89 260.55,263.92 260.47,263.93 C260.33,263.94 260.06,263.80 259.68,263.55 C260.11,263.77 260.46,263.85 260.79,263.81 ZM 325.85 321.00 L 327.00 321.00 L 327.00 321.13 ZM 226.96 290.14 C229.23,291.36 231.75,292.73 234.53,294.26 C231.92,292.83 229.26,291.38 226.96,290.14 ZM 239.47 365.61 C238.28,364.96 237.03,364.27 235.73,363.56 C237.37,364.46 238.66,365.16 239.47,365.61 C242.19,367.11 244.62,368.25 245.50,368.48 C244.62,368.25 242.19,367.11 239.47,365.61 ZM 156.97 290.67 C155.76,292.22 154.34,293.99 152.71,296.01 C154.24,294.11 155.69,292.31 156.97,290.67 ZM 401.97 208.98 C401.99,209.01 402.00,209.02 402.00,209.04 C402.00,209.24 401.25,209.81 399.47,210.92 C401.24,209.81 402.00,209.24 402.00,209.04 C402.00,209.02 401.99,209.01 401.97,208.98 ZM 245.33 300.27 C245.57,300.40 245.71,300.48 245.74,300.50 C245.76,300.51 245.79,300.75 245.81,301.19 C245.79,300.76 245.76,300.52 245.74,300.51 C245.62,300.44 245.49,300.36 245.33,300.27 ZM 405.93 217.12 C405.86,217.04 405.78,217.00 405.70,217.00 L 405.70 217.00 C405.78,217.00 405.86,217.04 405.93,217.12 ZM 319.42 116.05 C319.32,115.44 319.21,115.12 319.10,115.17 C319.21,115.12 319.32,115.44 319.42,116.05 ZM 362.98 230.81 C362.98,230.80 362.98,230.78 362.97,230.77 C362.98,230.78 362.99,230.80 362.98,230.80 C362.98,230.81 362.98,230.81 362.98,230.81 Z" fill="rgb(220,50,73)"/>
<path d="M 364.00 370.82 C362.62,370.32 355.99,364.43 349.25,357.72 C339.87,348.39 337.00,344.92 337.00,342.94 C337.00,341.47 335.92,339.33 334.51,338.01 C332.20,335.84 331.89,335.79 330.23,337.29 C326.50,340.67 316.72,344.29 310.02,344.77 C292.24,346.04 274.78,333.37 270.40,316.02 C268.22,307.36 268.91,298.06 272.30,290.65 C275.71,283.22 283.86,274.71 290.89,271.25 C295.98,268.76 297.52,268.50 307.50,268.50 C317.16,268.50 319.11,268.80 323.50,270.96 C329.95,274.12 338.97,283.16 341.85,289.36 C347.15,300.74 346.85,314.02 341.05,324.72 L 338.20 329.99 L 340.17 332.49 C341.54,334.23 343.12,335.00 345.34,335.00 C348.09,335.00 350.19,336.68 360.67,347.25 C367.34,353.99 373.09,360.49 373.45,361.70 C374.96,366.79 368.93,372.61 364.00,370.82 ZM 318.84 334.42 C331.23,329.24 339.42,313.96 336.93,300.66 C334.31,286.63 323.63,277.12 309.50,276.24 C300.24,275.66 292.46,278.49 286.26,284.68 C279.86,291.09 277.52,296.82 277.57,306.00 C277.62,314.54 279.72,320.33 284.93,326.26 C293.27,335.76 307.46,339.18 318.84,334.42 ZM 239.47 365.61 C236.19,363.80 224.95,357.68 214.50,352.01 C204.05,346.34 194.53,341.11 193.33,340.38 L 191.17 339.06 L 195.47 329.28 C200.25,318.44 213.89,289.55 215.60,286.65 C216.65,284.87 216.85,284.88 221.10,287.02 C224.30,288.63 242.42,298.55 245.74,300.51 C246.16,300.75 246.26,368.07 245.84,368.49 C245.62,368.71 242.75,367.42 239.47,365.61 ZM 240.00 348.08 L 240.00 337.16 L 229.60 331.58 C223.88,328.51 218.69,326.00 218.07,326.00 C217.27,326.00 217.02,329.21 217.22,336.66 L 217.50 347.32 L 228.00 353.11 C233.77,356.30 238.84,358.93 239.25,358.95 C239.66,358.98 240.00,354.08 240.00,348.08 ZM 109.00 351.44 C109.00,350.54 127.34,327.28 152.71,296.01 C162.16,284.35 164.47,280.70 160.26,284.09 C157.55,286.27 153.72,288.27 154.41,287.14 C154.75,286.59 154.66,285.91 154.20,285.63 C153.09,284.94 147.80,288.47 148.66,289.33 C149.03,289.70 148.78,290.00 148.11,290.00 C147.43,290.00 147.16,290.46 147.51,291.02 C147.86,291.58 148.63,291.73 149.24,291.35 C151.32,290.06 147.50,294.72 144.19,297.50 C141.52,299.74 140.65,300.03 139.69,298.99 C138.75,297.98 138.80,297.88 139.90,298.51 C140.85,299.05 141.07,298.93 140.59,298.14 C140.19,297.49 139.47,297.21 139.00,297.50 C138.53,297.79 137.87,297.59 137.53,297.05 C136.95,296.11 115.50,318.43 115.50,319.99 C115.50,320.40 113.03,322.91 110.00,325.55 C106.97,328.19 101.46,333.30 97.75,336.90 C89.90,344.51 88.95,344.14 95.73,336.11 C104.93,325.19 175.57,242.54 180.00,237.51 C182.48,234.70 191.85,223.76 200.84,213.20 C209.82,202.64 217.64,194.00 218.22,194.00 C218.79,194.00 228.39,202.79 239.55,213.54 L 259.85 233.08 L 273.18 217.80 C280.50,209.40 289.88,198.66 294.00,193.94 C298.12,189.22 310.73,174.62 322.00,161.49 C333.27,148.37 347.34,132.11 353.25,125.37 C359.16,118.63 363.98,112.75 363.96,112.31 C363.90,111.36 349.36,101.00 348.08,101.00 C347.60,101.00 346.95,100.32 346.64,99.50 C346.32,98.68 345.62,98.00 345.08,98.00 C343.29,98.00 338.91,92.97 340.26,92.46 C340.94,92.20 348.70,89.56 357.50,86.59 C366.30,83.62 382.05,78.18 392.50,74.51 C425.99,62.74 434.00,60.12 434.00,60.92 C434.00,61.35 432.09,63.82 429.75,66.43 C427.41,69.03 425.50,71.49 425.50,71.89 C425.50,72.29 423.81,74.10 421.75,75.91 C419.69,77.72 418.21,79.53 418.46,79.94 C418.72,80.35 417.58,81.68 415.93,82.89 C414.29,84.11 413.16,85.46 413.43,85.89 C413.70,86.33 412.55,87.69 410.88,88.93 C409.21,90.16 408.07,91.40 408.35,91.68 C408.63,91.96 407.30,93.56 405.39,95.23 C403.49,96.90 402.14,98.47 402.39,98.73 C402.65,98.98 401.32,100.53 399.45,102.17 C397.58,103.82 396.15,105.49 396.28,105.88 C396.40,106.28 394.81,108.09 392.75,109.90 C390.69,111.72 389.24,113.57 389.52,114.02 C389.79,114.48 388.68,115.81 387.03,116.98 C385.38,118.15 384.13,119.42 384.24,119.81 C384.35,120.19 381.89,123.16 378.76,126.41 C375.64,129.66 373.27,132.62 373.49,132.99 C373.72,133.36 371.89,135.34 369.43,137.39 C366.97,139.45 365.20,141.52 365.50,142.00 C365.79,142.47 365.01,143.58 363.77,144.45 C362.52,145.32 361.50,146.41 361.50,146.87 C361.50,147.33 360.04,148.94 358.25,150.45 C356.46,151.95 355.23,153.56 355.51,154.02 C355.80,154.48 355.01,155.58 353.77,156.45 C352.52,157.32 349.34,160.61 346.69,163.77 C344.05,166.92 339.25,172.65 336.02,176.50 C332.79,180.35 315.16,201.00 296.83,222.38 C278.50,243.76 263.00,261.88 262.39,262.63 C260.64,264.79 259.78,264.36 253.97,258.42 C250.96,255.35 241.87,246.53 233.77,238.82 L 219.04 224.80 L 216.27 228.12 C203.11,243.90 183.44,267.11 181.00,269.72 C179.35,271.49 178.00,273.23 178.00,273.59 C178.00,273.94 176.13,276.09 173.85,278.37 C171.56,280.64 167.45,285.20 164.71,288.50 C159.52,294.75 143.20,313.74 129.57,329.39 C116.13,344.82 109.00,352.47 109.00,351.44 ZM 103.00 292.96 L 94.50 288.03 L 94.00 252.51 C93.67,229.16 93.84,217.00 94.50,217.02 C95.05,217.02 100.68,219.84 107.00,223.27 L 118.50 229.50 L 119.00 239.29 L 119.50 249.07 L 126.75 253.00 L 134.00 256.93 L 134.00 247.97 C134.00,243.03 134.34,239.01 134.75,239.02 C135.16,239.03 139.91,241.43 145.30,244.35 L 155.11 249.65 L 136.30 271.43 C125.01,284.51 117.38,292.58 117.19,291.66 C116.86,290.05 100.18,280.49 99.27,281.40 C97.89,282.78 100.57,285.16 107.93,289.08 C116.01,293.39 117.05,294.55 114.80,296.80 C113.02,298.58 112.27,298.33 103.00,292.96 ZM 116.28 277.83 C117.11,277.31 116.96,276.14 115.73,273.56 C113.85,269.62 112.89,269.23 110.93,271.58 C109.90,272.82 109.88,273.57 110.81,275.07 C111.46,276.12 112.00,278.69 112.00,280.79 C112.00,282.88 112.56,285.17 113.25,285.86 C114.25,286.87 114.56,286.27 114.82,282.83 C114.99,280.47 115.65,278.21 116.28,277.83 ZM 107.16 272.90 C108.02,272.37 106.12,267.03 104.38,265.09 C103.51,264.12 100.06,268.37 100.88,269.40 C101.36,270.01 102.07,272.75 102.47,275.50 C103.42,282.07 105.39,283.39 105.82,277.74 C105.99,275.42 106.60,273.25 107.16,272.90 ZM 405.00 271.94 C405.00,270.81 404.61,270.12 404.13,270.42 C402.96,271.14 402.00,263.51 402.00,253.43 C402.00,245.67 401.83,245.01 399.37,243.07 C395.71,240.20 387.26,240.18 384.19,243.04 L 382.00 245.08 L 381.99 241.29 C381.98,239.21 381.70,235.85 381.37,233.82 C380.77,230.17 380.80,230.13 386.63,227.17 C389.86,225.53 395.17,222.57 398.44,220.60 C401.71,218.62 404.97,217.00 405.69,217.00 C406.74,217.00 407.00,222.68 407.00,245.50 C407.00,263.83 406.64,274.00 406.00,274.00 C405.45,274.00 405.00,273.07 405.00,271.94 ZM 325.22 261.34 L 319.94 258.84 L 322.13 255.17 C325.48,249.56 325.65,249.46 329.49,251.29 C332.88,252.91 333.00,253.16 333.00,258.48 C333.00,264.85 332.80,264.92 325.22,261.34 ZM 341.00 253.68 C341.00,252.95 342.33,251.72 343.95,250.93 C345.58,250.14 350.98,247.17 355.95,244.33 L 365.00 239.15 L 364.86 245.83 C364.79,249.50 364.54,251.51 364.30,250.30 C363.67,247.07 360.90,246.68 355.04,248.98 C352.19,250.11 349.45,250.78 348.96,250.47 C347.73,249.72 342.88,252.99 343.57,254.11 C343.87,254.60 343.42,255.00 342.56,255.00 C341.70,255.00 341.00,254.41 341.00,253.68 ZM 333.23 244.00 L 329.97 242.01 L 339.71 233.01 C345.07,228.05 349.95,224.00 350.55,224.00 C352.07,224.00 363.00,230.00 362.98,230.83 C362.97,231.37 339.66,244.85 337.18,245.75 C336.81,245.88 335.03,245.10 333.23,244.00 ZM 148.28 237.67 C142.11,234.28 137.05,231.27 137.03,230.98 C136.98,230.13 187.97,202.06 189.63,202.02 C190.25,202.01 191.29,202.64 191.93,203.42 C193.20,204.95 193.79,204.17 170.72,231.25 C164.74,238.26 159.77,243.96 159.68,243.92 C159.58,243.87 154.45,241.06 148.28,237.67 ZM 332.57 229.54 C333.48,228.14 334.61,227.00 335.08,227.00 C336.49,227.00 335.11,229.45 332.93,230.81 C330.95,232.05 330.95,232.01 332.57,229.54 ZM 110.21 216.21 C103.54,212.53 98.41,209.21 98.79,208.84 C99.18,208.46 112.78,200.87 129.00,191.97 C145.23,183.07 160.34,174.70 162.59,173.39 C169.78,169.19 170.12,169.55 169.92,181.11 C169.75,191.19 169.99,192.02 173.50,193.35 C174.05,193.56 174.27,193.96 174.00,194.25 C173.73,194.53 162.25,200.95 148.50,208.51 C134.75,216.06 123.24,222.39 122.92,222.58 C122.60,222.76 116.88,219.89 110.21,216.21 ZM 369.09 217.83 C360.97,213.44 359.95,212.61 361.60,211.72 C365.03,209.87 378.02,197.84 377.50,196.99 C376.47,195.33 381.99,197.64 391.86,203.00 C397.44,206.02 402.00,208.74 402.00,209.04 C402.00,209.54 397.36,212.32 383.99,219.83 L 378.48 222.92 L 369.09 217.83 ZM 352.87 206.39 C353.45,205.23 355.85,202.28 358.21,199.83 C360.57,197.38 362.16,195.84 361.75,196.39 C361.34,196.95 361.00,198.19 361.00,199.16 C361.00,200.14 359.99,201.44 358.75,202.06 C357.51,202.68 355.45,204.38 354.16,205.84 C352.38,207.87 352.07,208.00 352.87,206.39 ZM 239.46 197.92 C236.73,195.12 230.63,189.28 225.89,184.94 L 217.28 177.04 L 208.57 187.03 L 199.86 197.02 L 189.94 191.76 L 180.03 186.50 L 180.02 150.75 C180.01,131.09 180.34,115.02 180.75,115.05 C181.16,115.07 185.10,117.09 189.50,119.53 C193.90,121.98 199.19,124.89 201.25,126.01 L 205.00 128.04 L 205.00 137.48 L 205.00 146.91 L 211.92 150.96 C215.73,153.18 219.11,155.00 219.42,155.00 C219.74,155.00 220.00,150.95 220.00,146.00 C220.00,141.05 220.30,137.00 220.67,137.00 C221.04,137.00 226.84,140.02 233.56,143.71 L 245.77 150.42 L 246.29 169.46 C247.13,199.86 247.07,203.00 245.67,203.00 C244.99,203.00 242.19,200.71 239.46,197.92 ZM 203.00 190.53 C203.00,189.09 189.68,181.04 187.25,181.01 C184.06,180.98 186.68,183.87 193.27,187.65 C201.21,192.21 203.00,192.74 203.00,190.53 ZM 201.75 180.50 C201.37,177.12 201.59,176.00 202.61,176.00 C203.70,176.00 203.63,175.30 202.30,172.50 C200.37,168.46 199.93,168.31 197.59,170.90 C196.46,172.14 196.24,173.03 196.93,173.46 C197.52,173.82 198.00,175.70 198.00,177.62 C198.00,181.53 199.49,185.00 201.17,185.00 C201.87,185.00 202.08,183.40 201.75,180.50 ZM 192.00 175.50 C192.00,173.02 192.44,171.00 192.98,171.00 C193.57,171.00 193.50,169.91 192.79,168.25 C190.94,163.91 190.22,163.49 187.99,165.51 C186.20,167.13 186.13,167.49 187.46,168.24 C188.51,168.83 189.00,170.62 189.00,173.88 C189.00,176.51 189.30,178.97 189.67,179.33 C191.26,180.92 192.00,179.70 192.00,175.50 ZM 254.30 155.60 L 254.50 150.71 L 263.50 145.73 C268.45,142.99 272.73,140.46 273.00,140.10 C273.27,139.75 274.74,138.92 276.25,138.25 C278.84,137.12 279.00,137.19 279.00,139.52 C279.00,140.88 278.66,141.93 278.25,141.84 C276.23,141.39 271.93,143.46 269.42,146.08 C267.88,147.69 266.23,149.00 265.74,149.00 C265.26,149.00 264.18,149.68 263.36,150.50 C262.53,151.32 261.04,152.00 260.05,152.00 C257.87,152.00 256.16,153.91 254.98,157.69 C254.24,160.05 254.14,159.72 254.30,155.60 ZM 315.83 136.27 L 316.15 121.82 L 313.83 122.54 C310.22,123.65 306.19,125.86 301.01,129.59 C295.40,133.62 295.00,133.70 295.00,130.75 C295.01,128.92 297.18,127.28 306.60,122.00 C312.98,118.43 318.60,115.35 319.10,115.17 C319.61,114.98 320.00,121.93 320.00,131.30 C320.00,147.28 319.93,147.81 317.75,149.25 L 315.50 150.72 L 315.83 136.27 ZM 247.50 143.27 C246.40,142.99 245.25,142.37 244.93,141.87 C244.10,140.56 198.95,116.00 197.36,116.00 C196.61,116.00 196.00,115.52 196.00,114.94 C196.00,114.36 195.55,114.16 195.00,114.50 C194.45,114.84 194.00,114.75 194.00,114.31 C194.00,113.86 191.98,112.42 189.50,111.11 C187.02,109.80 185.00,108.45 185.00,108.11 C185.00,107.77 191.07,104.19 198.48,100.15 L 211.96 92.80 L 244.60 110.84 L 277.24 128.88 L 273.87 130.92 C272.02,132.04 269.83,133.42 269.00,133.98 C267.18,135.23 250.00,144.05 249.71,143.88 C249.59,143.82 248.60,143.54 247.50,143.27 ZM 286.00 118.28 C283.52,116.83 268.99,108.80 253.70,100.42 L 225.91 85.20 L 231.20 82.25 C250.95,71.24 249.63,71.76 253.23,73.57 C257.14,75.55 274.89,85.20 295.50,96.57 C303.75,101.12 311.74,105.40 313.25,106.08 C314.76,106.76 316.00,107.62 316.00,107.98 C316.00,108.34 313.30,109.92 310.00,111.50 C306.70,113.08 304.00,114.67 304.00,115.03 C304.00,115.65 292.13,121.06 291.00,120.96 C290.73,120.94 288.48,119.73 286.00,118.28 ZM 211.50 1.00 C214.42,-0.25 289.27,-0.25 288.50,1.00 C288.10,1.64 273.82,1.97 248.69,1.93 C225.88,1.89 210.34,1.50 211.50,1.00 ZM 287.81 307.98 C287.64,300.82 287.65,294.52 287.83,293.98 C288.48,292.08 291.77,293.00 292.37,295.25 C292.70,296.49 292.98,302.79 292.99,309.25 L 293.00 321.00 L 290.56 321.00 L 288.11 321.00 L 287.81 307.98 ZM 295.81 307.75 C295.46,294.86 295.96,291.55 297.94,293.55 C299.06,294.67 298.08,321.00 296.93,321.00 C296.51,321.00 296.00,315.04 295.81,307.75 ZM 301.00 307.00 L 301.00 293.00 L 303.50 293.00 L 306.00 293.00 L 306.00 307.00 L 306.00 321.00 L 303.50 321.00 L 301.00 321.00 L 301.00 307.00 ZM 309.00 307.00 C309.00,299.16 309.40,293.00 309.92,293.00 C313.28,293.00 313.50,293.97 313.20,307.51 C312.91,320.10 312.76,321.00 310.95,321.00 C309.11,321.00 309.00,320.20 309.00,307.00 ZM 316.93 312.75 C316.89,308.21 316.52,302.15 316.11,299.27 C315.38,294.17 315.99,292.75 318.50,293.66 C319.80,294.13 319.25,321.00 317.95,321.00 C317.43,321.00 316.97,317.29 316.93,312.75 ZM 321.67 320.33 C321.30,319.97 321.00,313.67 321.00,306.33 L 321.00 293.00 L 324.00 293.00 L 327.00 293.00 L 327.00 307.00 L 327.00 321.00 L 324.67 321.00 C323.38,321.00 322.03,320.70 321.67,320.33 ZM 300.17 285.12 C296.33,282.70 312.00,282.17 316.00,284.58 L 318.50 286.08 L 316.00 285.36 C313.33,284.59 305.69,284.65 303.08,285.46 C302.21,285.73 300.90,285.58 300.17,285.12 ZM 228.25 350.19 L 220.01 345.50 L 220.00 337.75 C220.00,333.49 220.16,330.00 220.36,330.00 C220.56,330.00 224.00,331.80 228.00,334.00 C232.00,336.20 235.66,338.00 236.14,338.00 C236.61,338.00 237.00,341.83 237.00,346.50 C237.00,351.17 236.89,354.97 236.75,354.94 C236.61,354.91 232.79,352.77 228.25,350.19 ZM 235.00 345.50 C235.00,342.48 234.81,340.00 234.58,340.00 C234.35,340.00 233.45,339.73 232.58,339.39 C231.27,338.89 231.00,339.63 231.00,343.69 C231.00,348.21 232.22,351.00 234.20,351.00 C234.64,351.00 235.00,348.52 235.00,345.50 ZM 229.22 341.25 C229.45,338.30 229.16,337.00 228.28,337.00 C226.87,337.00 226.42,346.08 227.75,347.42 C228.57,348.25 228.73,347.57 229.22,341.25 ZM 224.59 335.38 C224.30,334.62 223.60,334.00 223.03,334.00 C221.56,334.00 221.75,343.35 223.25,344.86 C224.25,345.87 224.56,345.19 224.81,341.44 C224.98,338.86 224.88,336.13 224.59,335.38 Z" fill="rgb(247,223,224)"/>
</g>
</svg>